<?xml version="1.0" standalone="no"?>
<!DOCTYPE svg PUBLIC "-//W3C//DTD SVG 20010904//EN"
 "http://www.w3.org/TR/2001/REC-SVG-20010904/DTD/svg10.dtd">
<svg version="1.0" xmlns="http://www.w3.org/2000/svg"
 width="640.000000pt" height="640.000000pt" viewBox="0 0 640.000000 640.000000"
 preserveAspectRatio="xMidYMid meet">

<g transform="translate(0.000000,640.000000) scale(0.100000,-0.100000)"
fill="#000000" stroke="none">
<path d="M0 6120 l0 -280 24 0 c16 0 35 -13 56 -40 l32 -40 -34 -1 c-18 -1
-25 -3 -15 -6 9 -2 17 -11 17 -18 0 -9 -6 -12 -16 -8 -11 4 -22 -1 -30 -12 -8
-10 -14 -13 -14 -7 0 7 -4 12 -10 12 -14 0 -13 -91 2 -148 9 -35 9 -47 0 -50
-7 -2 -12 -19 -12 -38 0 -23 4 -33 11 -28 6 3 8 17 5 30 -4 14 -2 24 4 24 5 0
10 -9 10 -20 0 -12 7 -34 15 -49 20 -39 32 -116 17 -107 -7 4 -12 15 -12 25 0
10 -7 25 -16 32 -9 7 -20 22 -24 34 -5 11 -9 -395 -9 -902 l-1 -922 33 -3 32
-3 3 -96 3 -97 -36 -6 c-32 -6 -35 -10 -35 -41 0 -31 3 -35 35 -41 52 -9 47
-54 -7 -68 l-28 -6 0 -130 c0 -112 2 -130 17 -139 17 -10 17 -10 1 -11 -16 0
-18 -67 -18 -1131 0 -765 3 -1128 10 -1124 20 12 41 67 55 138 10 55 19 76 39
92 25 20 37 43 15 29 -15 -9 9 34 33 60 28 30 108 153 123 190 8 17 32 49 55
71 23 22 52 56 65 75 30 46 107 130 99 108 -3 -10 12 1 35 23 47 47 50 55 19
38 -23 -12 -23 -12 -4 10 11 12 26 19 35 17 22 -7 66 34 68 62 3 37 33 119 48
132 14 11 134 40 168 40 9 0 36 13 59 30 22 16 46 30 51 30 6 0 18 6 26 14 9
8 23 16 31 18 8 2 21 9 28 16 8 7 24 10 36 7 14 -4 17 -3 8 3 -9 6 7 17 55 36
37 15 136 56 219 91 83 35 197 78 252 97 94 31 125 48 86 48 -10 0 -14 6 -11
15 4 8 2 17 -2 19 -4 3 -11 40 -15 83 -4 43 -9 92 -13 108 -3 17 -9 104 -13
195 -3 91 -12 202 -19 248 -7 45 -10 93 -7 106 6 24 43 46 80 46 94 0 186 85
216 198 6 24 13 49 16 57 4 10 -6 15 -43 17 l-48 3 -3 44 c-3 40 0 48 33 78
21 19 38 33 39 31 0 -2 7 -13 14 -26 7 -13 8 -22 2 -22 -5 0 -10 6 -10 12 0 7
-14 -2 -32 -19 -18 -18 -28 -36 -24 -40 4 -4 13 0 20 10 14 18 42 25 31 7 -4
-6 18 -10 59 -10 37 0 66 4 66 10 0 5 -5 9 -12 7 -7 -1 -12 12 -14 33 -1 19
-9 52 -18 73 -17 39 -32 51 -21 17 4 -13 2 -20 -7 -20 -17 0 -34 27 -42 70 -4
19 -14 53 -22 75 -8 22 -16 49 -17 60 -2 11 -10 34 -17 50 -18 40 -18 163 0
318 13 118 13 135 -3 205 -10 42 -18 83 -19 90 -1 6 -5 12 -10 12 -4 0 -8 7
-8 15 0 8 -4 15 -10 15 -5 0 -10 -12 -10 -27 0 -45 -20 -103 -43 -126 l-21
-21 -12 41 c-12 41 -18 238 -29 1000 l-4 302 24 29 c29 35 35 62 8 41 -15 -13
-16 -11 -10 23 4 24 0 48 -9 67 -12 23 -12 35 -4 51 9 16 8 24 -5 36 -18 18
-18 22 -5 61 7 17 7 39 2 53 -12 31 5 130 26 153 13 15 14 20 2 27 -11 7 -9
13 10 33 17 18 24 37 26 73 1 26 7 50 13 52 14 5 14 27 -1 52 -12 19 -11 25
17 93 7 16 -40 17 -899 17 l-906 0 0 -280z m1570 -360 c0 -5 -4 -10 -9 -10 -6
0 -13 5 -16 10 -3 6 1 10 9 10 9 0 16 -4 16 -10z m-25 -100 c3 -5 1 -10 -4
-10 -6 0 -11 5 -11 10 0 6 2 10 4 10 3 0 8 -4 11 -10z m-178 -196 c-3 -3 -12
-4 -19 -1 -8 3 -5 6 6 6 11 1 17 -2 13 -5z m280 -522 c1 -273 0 -518 -3 -543
l-6 -47 -22 23 c-20 20 -23 34 -25 102 -2 128 -12 257 -20 268 -13 17 -31 125
-31 186 0 31 8 86 17 121 9 35 17 83 18 108 1 25 5 92 10 150 6 89 11 107 29
122 11 9 23 15 25 12 3 -3 6 -228 8 -502z m-1487 253 l0 -45 40 0 c22 0 40 -4
40 -9 0 -5 8 -12 18 -14 10 -3 6 -5 -10 -6 -55 -2 -22 -41 34 -41 l38 0 0 -54
c0 -29 7 -67 15 -82 8 -16 15 -37 15 -46 0 -10 5 -18 11 -18 7 0 18 8 25 18
13 16 13 16 14 0 0 -10 -4 -18 -10 -18 -5 0 -10 -18 -10 -40 0 -22 5 -40 10
-40 6 0 10 7 10 16 0 14 3 14 15 4 12 -10 15 -38 15 -135 0 -109 2 -124 17
-127 13 -2 0 -20 -52 -72 -58 -57 -70 -65 -75 -50 -6 17 -8 16 -20 -6 -7 -14
-20 -31 -29 -38 -30 -23 -106 -53 -123 -49 -10 3 -22 -1 -29 -9 -6 -8 -18 -14
-25 -14 -8 0 -14 -11 -14 -26 0 -46 -17 -15 -24 43 -19 171 -25 285 -32 547
-6 259 -5 289 9 283 17 -7 29 15 21 38 -4 9 0 15 10 15 9 0 15 -3 15 -7 -4
-22 2 -43 11 -43 6 0 10 16 10 35 0 32 2 35 30 35 29 0 30 -2 30 -45z m1216
10 c-7 -18 -26 -20 -26 -2 0 18 24 41 28 27 2 -6 1 -17 -2 -25z m-49 -137 c-3
-8 -6 -5 -6 6 -1 11 2 17 5 13 3 -3 4 -12 1 -19z m53 -23 c0 -16 -6 -25 -15
-25 -18 0 -20 21 -3 38 17 17 18 16 18 -13z m-53 -37 c-3 -8 -6 -5 -6 6 -1 11
2 17 5 13 3 -3 4 -12 1 -19z m51 -120 c-6 -18 -28 -21 -28 -4 0 9 7 16 16 16
9 0 14 -5 12 -12z m-51 -50 c-3 -7 -5 -2 -5 12 0 14 2 19 5 13 2 -7 2 -19 0
-25z m0 -60 c-3 -8 -6 -5 -6 6 -1 11 2 17 5 13 3 -3 4 -12 1 -19z m53 -23 c0
-8 -7 -15 -15 -15 -16 0 -20 12 -8 23 11 12 23 8 23 -8z m10 -175 c0 -12 -28
-25 -36 -17 -9 9 6 27 22 27 8 0 14 -5 14 -10z m0 -149 c0 -10 -30 -24 -37
-17 -3 3 -2 9 2 15 8 13 35 15 35 2z m175 -21 c3 -5 -1 -10 -10 -10 -9 0 -13
5 -10 10 3 6 8 10 10 10 2 0 7 -4 10 -10z m-1405 -100 c0 -5 -14 -10 -31 -10
-17 0 -28 4 -24 10 3 6 17 10 31 10 13 0 24 -4 24 -10z m1230 -44 c0 -2 -7 -6
-15 -10 -8 -3 -15 -1 -15 4 0 6 7 10 15 10 8 0 15 -2 15 -4z m163 -26 c3 -11
1 -23 -4 -26 -5 -3 -9 6 -9 20 0 31 6 34 13 6z m-163 -39 c0 -5 -9 -11 -20
-14 -22 -6 -28 8 -7 16 19 8 27 8 27 -2z m17 -53 c-3 -8 -6 -5 -6 6 -1 11 2
17 5 13 3 -3 4 -12 1 -19z m17 -64 c-4 -41 -14 -41 -14 0 0 20 4 35 9 32 4 -3
7 -17 5 -32z m136 11 c0 -14 -4 -25 -10 -25 -11 0 -14 33 -3 43 11 11 13 8 13
-18z m-23 -132 c-3 -10 -5 -4 -5 12 0 17 2 24 5 18 2 -7 2 -21 0 -30z m3 -53
c0 -5 -2 -10 -4 -10 -3 0 -8 5 -11 10 -3 6 -1 10 4 10 6 0 11 -4 11 -10z
m-110 -100 c0 -5 -2 -10 -4 -10 -3 0 -8 5 -11 10 -3 6 -1 10 4 10 6 0 11 -4
11 -10z m123 -7 c3 -10 8 -31 11 -48 5 -26 3 -25 -14 10 -22 47 -23 55 -11 55
5 0 12 -8 14 -17z m-1414 -12 c11 -7 10 -21 -4 -82 -10 -41 -21 -82 -26 -91
-5 -9 -4 -18 0 -20 14 -5 80 -153 92 -205 17 -75 -14 -127 -80 -135 -20 -3
-24 2 -26 30 -2 20 2 32 10 32 20 0 37 27 30 50 -4 13 -15 20 -30 20 l-24 0 1
198 c0 108 2 200 5 205 6 10 35 9 52 -2z m1460 -116 c23 -48 27 -75 11 -75 -5
0 -14 19 -20 43 -6 23 -13 50 -16 60 -10 32 4 17 25 -28z m-319 -125 c0 -5 -7
-7 -15 -4 -8 4 -15 8 -15 10 0 2 7 4 15 4 8 0 15 -4 15 -10z m165 -30 c-3 -5
-13 -10 -21 -10 -8 0 -14 5 -14 10 0 6 9 10 21 10 11 0 17 -4 14 -10z m192
-62 c-3 -7 -5 -2 -5 12 0 14 2 19 5 13 2 -7 2 -19 0 -25z m-1567 -487 c0 -6
-4 -13 -10 -16 -5 -3 -10 1 -10 9 0 9 5 16 10 16 6 0 10 -4 10 -9z m-5 -61 c3
-5 1 -10 -4 -10 -6 0 -11 5 -11 10 0 6 2 10 4 10 3 0 8 -4 11 -10z"/>
<path d="M240 4410 c0 -5 5 -10 11 -10 5 0 7 5 4 10 -3 6 -8 10 -11 10 -2 0
-4 -4 -4 -10z"/>
<path d="M155 3460 c3 -5 8 -10 11 -10 2 0 4 5 4 10 0 6 -5 10 -11 10 -5 0 -7
-4 -4 -10z"/>
<path d="M3586 6384 c-7 -18 -8 -84 -2 -84 3 0 21 10 41 21 52 31 52 18 0 -20
-42 -30 -45 -35 -45 -77 0 -24 2 -44 5 -44 3 0 29 12 58 26 60 31 57 24 -14
-26 -46 -32 -52 -39 -54 -77 -2 -24 -2 -43 0 -43 2 0 24 9 49 20 25 10 46 18
46 16 0 -2 -22 -18 -50 -36 -46 -29 -50 -35 -50 -71 0 -21 2 -39 5 -39 3 0 28
12 56 26 72 36 72 23 0 -21 -58 -35 -61 -38 -61 -76 l0 -40 30 16 c51 26 80
35 80 25 0 -6 -5 -10 -12 -10 -6 0 -33 -14 -60 -31 -41 -27 -48 -36 -48 -64
l0 -32 80 31 79 31 1 42 c0 31 -4 43 -17 46 -17 4 -17 5 0 6 15 1 17 15 17
134 0 72 3 185 7 250 l6 117 -37 0 c-20 0 -36 -4 -36 -10 0 -5 -5 -10 -11 -10
-5 0 -7 5 -4 10 4 6 -6 10 -23 10 -18 0 -32 -6 -36 -16z m56 -476 c-7 -7 -12
-8 -12 -2 0 14 12 26 19 19 2 -3 -1 -11 -7 -17z"/>
<path d="M3747 6333 c-4 -38 -9 -230 -12 -428 -6 -384 -14 -590 -22 -581 -3 3
-6 28 -6 56 0 28 -4 53 -8 56 -5 3 -22 -4 -38 -16 -20 -13 -32 -17 -36 -10 -4
6 -5 13 -4 14 12 10 73 25 80 20 5 -3 9 13 9 36 0 34 -3 41 -17 38 -10 -2 -17
-10 -15 -17 1 -7 -2 -10 -6 -7 -9 5 -49 -13 -112 -50 -14 -8 -35 -13 -47 -11
-12 2 -20 0 -17 -4 3 -5 1 -9 -4 -9 -5 0 -14 10 -21 23 -11 22 -11 22 -5 -3 3
-17 -4 -11 -23 21 -15 25 -40 58 -55 75 -16 16 -28 32 -28 36 0 5 -6 8 -14 8
-8 0 -16 5 -18 11 -2 5 -10 11 -18 12 -8 2 -21 7 -29 11 -10 6 -12 5 -7 -2 4
-7 3 -12 -3 -12 -5 0 -13 5 -16 11 -5 7 -41 8 -114 4 -85 -6 -113 -4 -137 7
-48 25 -90 28 -144 12 -28 -8 -55 -12 -60 -9 -6 3 -10 2 -10 -3 0 -6 -17 -13
-37 -17 -39 -7 -119 -32 -136 -42 -5 -3 -4 -9 3 -13 8 -5 2 -8 -16 -9 -54 -1
-64 -2 -69 -12 -4 -5 1 -9 9 -9 9 0 16 -4 16 -10 0 -13 -37 -13 -42 0 -2 6
-13 2 -25 -10 -24 -22 -54 -27 -93 -16 -16 5 -20 4 -12 -2 10 -7 10 -11 -3
-22 -8 -7 -15 -21 -15 -31 0 -11 -4 -19 -10 -19 -5 0 -10 6 -10 13 0 18 -27
53 -35 45 -4 -3 -2 -15 3 -25 14 -26 1 -46 -24 -36 -17 6 -18 5 -4 -12 14 -17
14 -18 -7 -6 -20 10 -23 9 -23 -9 0 -32 -46 -27 -62 8 -7 15 -20 28 -28 28 -8
1 -23 2 -33 3 -10 0 -17 7 -16 14 3 25 -1 38 -13 36 -7 -1 -21 1 -31 6 -27 11
-32 -1 -18 -41 11 -29 11 -45 0 -81 -6 -25 -18 -47 -26 -50 -7 -3 -13 -11 -13
-19 0 -8 6 -11 15 -8 11 5 13 2 9 -10 -3 -9 -14 -16 -23 -17 -10 0 -11 -2 -3
-6 6 -2 10 -9 6 -14 -3 -5 2 -9 11 -9 9 0 13 -5 10 -10 -4 -6 -12 -8 -18 -4
-7 3 -3 -2 8 -11 12 -10 21 -12 23 -5 3 8 8 7 18 -1 19 -15 18 -33 -1 -25 -8
3 -15 0 -15 -7 0 -7 -5 -4 -11 6 -5 9 -15 17 -20 17 -6 0 -3 -10 5 -22 20 -28
21 -49 2 -22 -8 11 -18 15 -23 10 -4 -5 -2 -11 5 -13 6 -3 12 -9 12 -15 0 -6
-6 -6 -15 2 -20 16 -68 -3 -95 -38 -25 -31 -25 -38 -1 -45 15 -4 18 1 17 26 0
18 5 32 13 35 10 3 12 0 8 -11 -4 -10 1 -20 11 -26 14 -8 14 -11 2 -11 -11 0
-10 -4 5 -17 15 -11 16 -14 3 -10 -11 4 -18 -2 -23 -20 -5 -20 -11 -24 -30
-21 -13 3 -22 1 -19 -3 3 -5 0 -9 -5 -9 -6 0 -11 -5 -11 -10 0 -7 6 -7 19 0
30 16 41 12 37 -12 -2 -13 -9 -22 -15 -20 -15 3 -14 -21 2 -37 10 -10 8 -11
-8 -6 -17 6 -18 5 -5 -7 20 -18 22 -61 2 -53 -12 4 -12 2 -3 -8 9 -11 8 -17
-4 -27 -8 -7 -15 -19 -15 -27 0 -8 -5 -11 -12 -8 -7 4 -5 0 5 -8 19 -16 24
-32 6 -21 -7 4 -9 0 -5 -13 4 -13 -2 -26 -19 -41 -23 -20 -24 -23 -10 -57 15
-35 15 -35 -10 -35 -15 0 -24 -4 -20 -10 3 -5 22 -10 41 -10 34 0 45 -12 22
-26 -6 -4 -14 -2 -16 4 -2 7 -13 12 -23 12 -31 0 -13 -17 35 -33 40 -14 45
-14 50 0 10 25 20 6 21 -40 0 -36 3 -42 23 -45 24 -4 31 -39 10 -60 -8 -8 -8
-15 0 -25 6 -7 8 -24 5 -37 -4 -15 -2 -21 5 -17 5 4 12 1 14 -5 3 -7 4 3 4 24
-1 20 -4 34 -8 31 -12 -7 -9 12 7 48 l16 34 -4 -33 c-2 -18 1 -37 8 -42 6 -5
10 -34 9 -69 -2 -34 1 -63 6 -66 14 -9 28 28 19 50 -4 11 -8 27 -8 35 -1 12 1
13 8 1 6 -9 9 1 10 30 3 63 4 69 10 69 3 0 7 10 7 23 3 44 22 95 43 116 12 12
21 16 21 9 0 -10 3 -9 9 1 6 9 11 10 15 2 4 -6 12 -9 17 -6 5 4 9 2 9 -3 0
-14 47 -21 59 -9 8 8 11 6 11 -6 0 -9 5 -17 11 -17 5 0 7 -5 4 -10 -4 -6 -8
-25 -10 -43 -2 -18 -1 -26 2 -19 8 22 25 13 18 -10 -5 -18 -4 -20 4 -8 9 13
11 13 11 -1 0 -9 7 -19 14 -22 11 -4 13 -16 10 -44 -5 -30 -3 -35 6 -23 9 11
13 12 17 2 2 -6 10 -9 16 -5 9 5 9 3 2 -8 -17 -23 -12 -54 8 -51 9 2 17 -2 17
-7 0 -16 -21 -24 -33 -12 -7 7 -17 4 -32 -13 -22 -24 -208 -89 -290 -101 -37
-6 -39 -5 -21 9 10 8 24 12 30 9 6 -4 5 1 -3 10 -9 12 -10 17 -2 17 7 0 10 4
6 10 -3 5 -12 7 -20 3 -12 -4 -15 5 -16 38 -2 30 -3 35 -6 17 -6 -40 -21 -34
-33 12 -13 47 -20 52 -17 10 1 -16 5 -30 10 -30 11 0 8 -30 -8 -74 -12 -33
-12 -41 1 -53 19 -19 18 -63 -1 -63 -8 0 -15 7 -15 15 0 27 -15 16 -26 -21
l-11 -35 28 6 c23 5 30 2 42 -21 9 -16 17 -23 21 -16 4 6 0 22 -9 35 -14 23
-14 25 2 29 37 9 67 -7 77 -39 16 -57 43 -49 36 10 -1 10 4 34 10 53 15 43 88
94 134 93 l31 -1 -30 -10 c-39 -14 -40 -15 -26 -32 9 -11 7 -15 -10 -19 -16
-4 -19 -10 -14 -28 6 -17 4 -21 -7 -16 -14 5 -14 1 -9 -45 1 -4 7 -13 15 -21
8 -8 16 -20 18 -28 5 -23 -23 -79 -39 -79 -10 0 -13 -6 -9 -16 3 -9 6 -26 6
-38 0 -15 6 -22 20 -22 11 0 20 4 20 8 0 4 6 8 14 8 7 0 29 11 48 24 34 23 36
23 48 5 8 -10 17 -16 22 -13 4 3 5 -2 2 -9 -8 -21 -42 -28 -52 -11 -7 12 -11
12 -26 -5 -10 -11 -23 -17 -30 -15 -7 3 -18 -2 -25 -10 -14 -16 0 -54 25 -69
8 -4 14 -12 14 -18 0 -27 -68 57 -102 126 -22 44 -36 67 -33 50 12 -55 57
-135 101 -177 l42 -40 -23 -22 c-19 -18 -20 -23 -9 -34 8 -7 19 -10 26 -6 8 5
9 2 4 -12 -17 -41 -27 -85 -21 -94 3 -6 0 -10 -7 -10 -8 0 -13 -14 -13 -39 -1
-22 3 -37 7 -35 9 6 11 -20 2 -29 -4 -4 -8 -25 -10 -47 -5 -52 42 -233 69
-268 5 -7 7 -15 4 -18 -3 -3 3 -22 14 -41 11 -19 16 -39 13 -45 -4 -7 -2 -8 4
-4 8 5 12 -1 12 -18 0 -13 7 -31 15 -40 14 -14 14 -17 -5 -28 -24 -15 -27 -40
-4 -31 14 5 16 1 12 -20 -3 -14 -1 -32 3 -39 7 -11 9 -11 9 0 0 7 5 10 10 7 6
-3 10 -2 10 4 0 5 -4 11 -9 13 -13 4 -18 42 -6 46 6 1 10 -1 10 -5 1 -5 4 -20
8 -36 4 -15 3 -36 -3 -46 -10 -20 10 -77 23 -65 12 13 58 13 54 1 -2 -7 -11
-11 -20 -9 -8 1 -18 -2 -22 -8 -3 -6 0 -7 9 -4 14 6 21 -5 17 -28 0 -5 5 -8
12 -8 11 0 41 -59 34 -66 -2 -2 -19 12 -40 31 -39 36 -48 35 -21 -3 9 -14 11
-22 4 -22 -12 0 -4 -40 9 -50 13 -10 30 -105 20 -115 -5 -5 -9 -14 -9 -20 0
-5 4 -4 9 4 7 10 13 11 27 2 14 -7 15 -10 5 -11 -11 0 -12 -3 -4 -11 6 -6 9
-18 5 -27 -4 -11 -1 -14 11 -9 9 3 17 2 17 -3 0 -6 -7 -10 -15 -10 -8 0 -12
-6 -9 -14 3 -7 -2 -21 -11 -30 -20 -19 -33 -13 -92 42 -59 56 -77 96 -76 165
l1 57 -24 -22 c-13 -13 -24 -29 -24 -36 0 -7 -12 -25 -26 -40 -29 -30 -65
-106 -66 -137 0 -11 -4 -69 -10 -130 -8 -90 -7 -117 6 -152 15 -44 13 -55 -10
-46 -8 3 -14 -1 -14 -10 0 -10 -7 -13 -24 -10 -13 3 -27 0 -30 -6 -8 -13 20
-45 33 -37 4 3 11 -16 14 -42 7 -58 36 -134 48 -126 5 3 9 -10 8 -28 -1 -31
-1 -32 -9 -8 -7 22 -8 21 -9 -12 -1 -41 -8 -48 -51 -53 -29 -4 -30 -3 -30 40
0 54 20 61 38 13 6 -17 14 -29 17 -26 7 7 -27 88 -37 88 -7 0 -22 31 -62 125
-7 17 -12 38 -10 48 3 21 -5 22 -33 2 -12 -8 -24 -28 -26 -43 l-4 -27 -2 28
c0 15 -5 27 -9 27 -23 0 -77 -73 -67 -90 3 -5 1 -18 -5 -29 -11 -21 -17 -61
-19 -124 -1 -24 -5 -36 -12 -32 -6 4 -13 -3 -16 -15 -3 -11 -11 -19 -18 -16
-18 6 -35 -14 -35 -42 0 -21 4 -24 25 -20 17 4 25 1 25 -8 0 -8 -6 -14 -14
-14 -8 0 -21 -3 -30 -6 -11 -4 -16 0 -16 14 0 12 -5 24 -12 28 -7 4 -8 3 -4
-5 8 -12 -10 -41 -25 -41 -5 0 -9 12 -9 28 0 29 41 206 66 287 16 50 132 305
143 315 3 3 14 15 25 27 l18 22 -30 -8 c-17 -5 -60 -26 -96 -46 -62 -35 -92
-36 -44 -2 22 15 22 16 -24 16 l-47 1 2 -37 c2 -37 1 -38 -35 -41 -29 -2 -39
1 -48 17 -10 19 -13 20 -33 7 -12 -8 -47 -19 -77 -25 -30 -7 -74 -23 -98 -36
-25 -14 -52 -25 -61 -25 -9 0 -38 -8 -66 -18 -34 -13 -50 -24 -49 -35 2 -18
-11 -23 -20 -8 -9 13 -93 -21 -124 -51 -73 -68 -137 -158 -113 -158 18 0 2
-61 -24 -91 -14 -17 -25 -43 -26 -57 0 -15 -9 -45 -20 -67 -17 -34 -19 -36
-15 -12 3 26 2 28 -25 22 -17 -4 -29 -2 -29 3 0 6 13 13 30 17 16 4 30 11 30
17 0 6 -8 7 -18 3 -47 -19 -48 -18 -49 32 -1 44 3 51 27 65 17 10 33 30 38 50
5 18 13 42 18 52 5 14 4 17 -4 12 -7 -4 -12 -2 -12 6 0 9 -3 9 -8 2 -4 -6 -17
-16 -29 -23 -13 -6 -23 -18 -23 -26 0 -8 -4 -15 -9 -15 -5 0 -11 -10 -14 -22
-3 -21 -4 -21 -11 -5 -6 12 -2 24 10 38 18 20 18 20 -8 10 -14 -5 -36 -8 -49
-5 -13 2 -18 2 -11 -2 6 -3 9 -10 6 -16 -4 -6 2 -8 17 -4 13 3 18 3 12 0 -7
-3 -13 -11 -13 -18 0 -11 -12 -10 -55 2 -43 12 -58 13 -67 4 -9 -9 -5 -12 18
-12 28 -1 28 -1 -13 -20 -71 -34 -65 -43 21 -38 42 3 79 1 82 -3 3 -5 -1 -9
-10 -9 -8 0 -13 -8 -12 -17 2 -13 -11 -24 -48 -39 -45 -18 -52 -19 -62 -5 -10
13 -15 9 -28 -24 -10 -22 -15 -50 -11 -62 3 -14 -3 -31 -20 -51 -20 -24 -22
-31 -10 -36 8 -3 15 -10 15 -16 0 -7 -6 -8 -17 -2 -27 16 -114 -50 -140 -106
-14 -29 -14 -35 -2 -42 8 -6 19 -4 29 4 34 29 43 30 37 5 -4 -16 0 -30 13 -44
20 -21 20 -22 -4 -34 -28 -15 -50 -57 -47 -87 1 -12 -5 -39 -13 -59 -13 -31
-18 -35 -31 -25 -21 18 -40 2 -22 -18 8 -10 18 -27 21 -38 4 -12 15 -32 26
-44 21 -25 26 -50 10 -50 -5 0 -10 7 -10 15 0 8 -9 23 -20 32 -11 10 -20 24
-20 33 0 8 -16 34 -34 58 l-34 43 -16 -23 c-9 -12 -16 -17 -16 -11 0 7 4 15
10 18 16 10 11 48 -11 75 -17 22 -19 23 -17 5 2 -11 10 -23 18 -27 10 -4 7 -7
-10 -7 -59 -2 -97 -65 -63 -104 17 -19 17 -20 1 -14 -14 5 -22 -4 -38 -40 -26
-58 -25 -70 3 -75 24 -5 41 13 75 77 19 34 13 6 -7 -33 -10 -20 -22 -53 -26
-72 -4 -19 -14 -51 -22 -70 -15 -35 -16 -35 -22 -10 -5 15 -2 30 6 38 19 20
16 40 -9 53 -18 10 -23 9 -27 -2 -2 -8 -24 -33 -48 -57 -23 -24 -43 -48 -44
-55 -3 -37 5 -88 21 -129 10 -27 14 -48 10 -48 -8 0 -24 -50 -25 -75 0 -5 -5
-14 -11 -20 -6 -5 -19 -30 -29 -55 -10 -25 -35 -61 -56 -81 l-39 -37 1 -131 1
-131 83 0 c81 0 84 1 104 29 l21 29 -31 6 c-36 7 -35 13 15 89 19 29 44 81 57
117 12 36 28 75 36 87 14 21 16 21 49 6 28 -14 32 -19 21 -32 -10 -12 -9 -14
5 -8 13 5 18 1 18 -13 0 -10 -5 -22 -11 -25 -5 -4 -14 -17 -19 -29 -4 -13 -24
-31 -44 -40 -20 -9 -36 -19 -36 -21 0 -6 33 6 49 19 11 9 12 6 6 -14 -22 -72
-59 -138 -93 -167 l-37 -33 161 0 161 0 13 40 c7 22 14 40 16 40 10 0 104 -65
104 -71 0 -5 135 -9 300 -9 264 0 300 2 308 16 8 15 10 15 15 0 6 -14 45 -16
368 -16 323 0 360 2 349 15 -17 21 -13 23 38 17 35 -3 41 -7 31 -18 -10 -12
21 -14 205 -14 198 0 239 5 206 25 -24 15 -6 25 45 25 52 0 55 -1 55 -25 0
-24 2 -25 75 -25 l75 0 0 39 c0 43 -6 42 83 20 30 -8 37 -14 37 -34 0 -24 3
-25 60 -25 44 0 60 4 60 14 0 7 12 16 26 19 20 3 28 0 31 -14 7 -25 69 -26
111 -2 28 16 31 16 55 0 15 -9 45 -17 68 -17 41 0 41 1 36 30 -5 25 -3 30 12
30 10 0 19 -6 18 -13 -1 -45 1 -47 68 -47 l65 0 0 50 c0 43 3 50 19 50 11 0
22 -6 24 -12 4 -10 6 -10 6 0 1 6 4 12 9 12 4 0 7 -21 7 -47 0 -37 4 -48 17
-51 11 -2 18 5 21 20 l4 23 2 -22 1 -23 990 0 c572 0 990 4 990 9 0 5 -9 28
-20 52 -11 24 -20 51 -20 59 0 14 120 93 129 84 2 -2 0 -11 -4 -21 -9 -21 -6
-72 4 -92 7 -10 9 -10 14 3 4 10 3 15 -3 11 -6 -4 -10 9 -10 29 0 20 2 36 4
36 2 0 16 -26 32 -57 53 -111 56 -113 151 -113 l84 0 -31 58 c-30 57 -37 82
-22 82 12 0 34 -31 62 -86 l25 -49 105 -3 c68 -1 100 1 91 7 -12 8 -11 13 10
29 19 17 25 18 32 7 4 -8 15 -11 23 -8 12 5 13 7 3 14 -8 4 -10 11 -6 15 3 4
13 1 21 -5 8 -7 24 -10 35 -6 10 3 22 2 25 -3 6 -11 -36 -32 -67 -33 -12 0
-31 -4 -42 -9 -13 -6 15 -9 78 -8 56 0 95 4 91 9 -3 5 11 9 30 9 l36 0 0 95
c0 85 -3 102 -30 159 -17 35 -48 80 -70 100 -31 28 -35 36 -22 39 15 4 15 5
-1 6 -44 3 -101 104 -133 236 -9 33 -20 78 -27 100 -7 22 -11 45 -9 52 1 6 -7
15 -20 19 -20 6 -20 8 -5 19 9 6 14 15 10 18 -5 6 33 47 43 47 2 0 10 -12 18
-27 8 -17 15 -72 18 -140 4 -111 5 -113 43 -170 54 -81 147 -191 174 -208 8
-4 11 16 11 64 0 57 -4 75 -19 90 -11 11 -28 35 -37 53 -9 18 -38 56 -63 84
-49 54 -101 146 -101 179 0 11 5 27 10 35 8 12 10 12 10 -5 0 -30 103 -175
155 -218 l46 -39 -16 39 c-28 67 -92 166 -139 216 -29 30 -48 60 -52 82 -3 20
-17 51 -30 71 -27 39 -28 44 -13 44 5 0 18 -17 27 -37 l17 -38 3 53 c3 44 -2
63 -27 108 -17 29 -31 65 -31 78 0 33 -11 38 -43 21 -20 -10 -29 -10 -40 -2
-17 15 -57 84 -57 100 -1 16 -33 81 -65 132 -13 22 -30 51 -37 65 -7 14 -27
44 -45 68 -21 27 -33 55 -33 74 0 26 2 29 15 18 24 -20 114 -166 160 -260 24
-47 54 -94 68 -103 13 -8 30 -22 38 -29 47 -45 53 -44 29 2 -25 49 -95 150
-132 190 -34 37 -178 265 -178 282 0 8 -14 36 -31 61 -30 46 -53 59 -61 35
-11 -33 -102 32 -221 159 -21 23 -63 54 -94 69 -63 32 -93 65 -93 103 l0 26
20 -32 c10 -17 29 -37 42 -44 35 -17 137 -98 188 -147 37 -36 132 -92 157 -92
4 0 -6 14 -23 31 -31 33 -95 79 -147 106 -60 30 -189 135 -209 169 -11 19 -24
32 -28 29 -5 -3 -11 3 -15 14 -9 29 -182 90 -260 91 -22 0 -71 6 -110 14 -53
11 -129 14 -307 11 -230 -3 -238 -2 -305 22 -140 51 -303 90 -445 107 l-96 11
-51 70 c-48 65 -65 80 -41 34 7 -13 7 -19 0 -19 -5 0 -10 5 -10 10 0 6 -7 10
-15 10 -8 0 -19 9 -25 19 -8 16 -6 22 6 29 14 8 12 13 -16 33 -30 23 -32 27
-28 79 3 43 15 75 54 145 l49 89 80 14 c204 34 336 134 433 327 50 102 78 213
88 350 12 178 -23 357 -131 681 -81 242 -84 291 -40 639 19 150 19 218 0 282
-34 114 -89 157 -201 157 -87 1 -112 18 -152 104 l-27 57 3 383 c2 210 1 382
-1 382 -2 0 -7 -30 -10 -67z m-1352 -903 c3 -5 1 -10 -4 -10 -6 0 -11 5 -11
10 0 6 2 10 4 10 3 0 8 -4 11 -10z m-221 -62 c-3 -5 -11 -5 -17 -2 -7 4 -8 3
-4 -2 5 -5 21 -9 35 -9 23 -1 27 -5 28 -32 1 -29 0 -31 -17 -20 -15 9 -22 8
-36 -6 -16 -16 -16 -17 0 -17 10 0 15 5 12 10 -9 15 11 12 23 -3 9 -10 6 -18
-9 -30 -20 -17 -45 -14 -34 4 4 5 -1 9 -9 9 -8 0 -18 -4 -21 -10 -3 -5 -15
-10 -26 -10 -10 0 -19 -4 -19 -10 0 -5 -7 -10 -16 -10 -14 0 -14 1 0 16 9 8
16 21 16 27 0 9 3 8 8 -1 14 -22 43 21 45 67 1 35 4 40 23 39 13 -1 20 -6 18
-10z m-76 -60 c-3 -7 -11 -13 -18 -13 -7 0 -15 6 -17 13 -3 7 4 12 17 12 13 0
20 -5 18 -12z m38 -109 c1 -8 3 -16 4 -19 1 -3 4 -16 6 -30 4 -23 4 -24 -12
-8 -21 21 -30 82 -12 75 7 -2 14 -10 14 -18z m-153 -103 c6 -14 0 -26 -13 -26
-3 0 -6 9 -6 20 0 23 11 27 19 6z m27 -1 c0 -8 -2 -15 -4 -15 -2 0 -6 7 -10
15 -3 8 -1 15 4 15 6 0 10 -7 10 -15z m-6 -141 c9 -24 7 -28 -9 -14 -17 14
-20 30 -6 30 5 0 12 -7 15 -16z m1233 -274 c6 -22 18 -26 28 -10 10 16 35 12
35 -6 0 -11 5 -14 16 -10 22 8 40 -4 23 -15 -11 -7 -11 -9 -1 -9 21 0 72 29
72 41 0 8 5 7 15 -1 21 -17 19 -29 -4 -23 -26 7 -36 -14 -11 -22 11 -4 20 -15
20 -26 0 -11 10 -24 23 -29 17 -7 18 -9 5 -9 -12 -1 -18 -9 -18 -25 0 -19 4
-22 24 -19 21 4 27 -2 46 -43 l21 -49 34 40 c19 22 34 47 35 55 0 13 1 13 10
0 6 -10 6 -16 -1 -19 -7 -2 -6 -7 2 -12 11 -8 11 -11 -3 -20 -38 -22 -13 -81
27 -65 25 9 29 7 28 -14 -2 -33 -2 -34 -22 -16 -11 10 -24 15 -30 12 -5 -3
-11 -1 -13 5 -3 9 -10 9 -27 -1 l-23 -12 22 -22 c14 -13 24 -17 27 -10 5 14
76 1 81 -14 1 -5 9 -18 17 -28 13 -17 14 -16 9 16 -5 25 -3 32 4 25 6 -5 13
-26 15 -45 2 -20 7 -41 11 -49 4 -7 6 -14 4 -16 -5 -5 -245 38 -337 60 -36 9
-71 13 -78 10 -8 -2 -11 0 -8 5 7 11 4 11 -66 13 -27 1 -46 -2 -46 -9 0 -7 18
-9 51 -6 28 2 48 2 45 -2 -11 -11 -149 -18 -149 -8 0 6 7 12 15 16 8 3 15 10
15 15 0 6 -7 8 -15 5 -8 -4 -22 -1 -30 6 -12 10 -15 9 -15 -6 0 -15 -8 -20
-36 -22 -33 -2 -36 0 -31 19 8 28 -18 57 -28 32 -11 -31 -25 7 -23 67 1 50 2
51 5 13 4 -43 23 -61 23 -22 0 18 2 19 15 5 9 -8 14 -21 13 -28 -2 -6 3 -12
10 -13 7 0 17 -6 21 -14 5 -8 16 -11 26 -7 15 5 15 7 1 22 -23 22 -20 32 10
32 18 0 28 -7 32 -20 2 -10 9 -17 15 -15 14 4 21 57 7 57 -5 0 -10 7 -10 16 0
29 25 8 31 -27 l5 -34 9 29 c5 20 4 31 -6 37 -11 7 -10 11 6 23 11 9 25 16 31
16 6 0 27 14 45 30 37 33 14 31 -33 -3 -15 -11 -35 -17 -47 -14 -13 3 -18 1
-15 -7 3 -9 -9 -13 -38 -14 -33 -2 -39 1 -30 10 17 17 15 31 -3 24 -10 -4 -15
1 -15 14 0 15 7 20 25 20 19 0 23 4 18 18 -3 9 -12 24 -18 32 -7 8 -15 29 -18
45 -4 17 -4 24 -1 18 3 -7 17 -13 30 -13 13 0 24 -4 24 -10 0 -5 13 -8 29 -7
24 2 27 5 20 19 -12 23 -11 38 2 38 6 0 13 -9 16 -20z m287 -105 c3 -8 1 -15
-3 -15 -5 0 -11 7 -15 15 -3 8 -1 15 3 15 5 0 11 -7 15 -15z m-1184 -72 c0
-10 -5 -25 -10 -33 -7 -12 -12 -12 -22 -2 -9 9 -8 12 6 12 13 0 16 5 11 20 -4
11 -2 20 4 20 6 0 11 -8 11 -17z m1220 -9 c0 -8 -6 -14 -14 -14 -8 0 -16 -6
-19 -12 -3 -7 -5 -2 -4 12 2 38 37 52 37 14z m-463 3 c4 -8 16 -16 26 -20 9
-3 17 -13 17 -22 0 -18 -20 -21 -20 -2 -1 7 -6 5 -14 -5 -19 -25 -40 -22 -56
7 -12 22 -11 27 6 40 24 18 31 18 41 2z m-1097 -13 c0 -8 -5 -12 -10 -9 -6 4
-8 11 -5 16 9 14 15 11 15 -7z m346 -41 c-10 -10 -19 5 -10 18 6 11 8 11 12 0
2 -7 1 -15 -2 -18z m1284 -23 c0 -5 -7 -10 -15 -10 -8 0 -15 5 -15 10 0 6 7
10 15 10 8 0 15 -4 15 -10z m-673 -42 c-3 -8 -6 -5 -6 6 -1 11 2 17 5 13 3 -3
4 -12 1 -19z m730 -20 c-3 -7 -5 -2 -5 12 0 14 2 19 5 13 2 -7 2 -19 0 -25z
m-760 -17 c3 -13 11 -18 21 -14 11 3 13 2 6 -4 -6 -4 -13 -16 -17 -25 -9 -25
-31 -23 -24 2 3 11 1 20 -4 20 -5 0 -9 9 -9 20 0 26 20 26 27 1z m-483 -46
c-10 -8 -26 -14 -34 -14 -11 0 -10 3 4 14 11 8 27 15 35 15 11 0 10 -4 -5 -15z
m943 -11 c-3 -3 -12 -4 -19 -1 -8 3 -5 6 6 6 11 1 17 -2 13 -5z m513 -25 c0
-6 -4 -7 -10 -4 -5 3 -10 11 -10 16 0 6 5 7 10 4 6 -3 10 -11 10 -16z m-28
-77 c-2 -12 1 -22 6 -22 6 0 9 -28 8 -65 l-3 -65 31 0 c17 0 26 4 19 8 -15 9
-5 62 13 62 16 0 33 -30 27 -47 -3 -7 3 -13 12 -13 11 0 15 -5 11 -15 -3 -8
-3 -15 0 -15 2 0 8 10 13 22 l8 22 13 -23 c10 -19 10 -25 -1 -32 -11 -7 -10
-9 4 -9 10 0 16 -3 14 -7 -3 -5 1 -21 9 -38 8 -16 12 -21 9 -10 -6 19 -5 19
14 -2 15 -16 23 -42 27 -93 l7 -72 -34 4 c-28 2 -34 0 -34 -17 0 -16 -6 -19
-26 -17 -22 3 -27 -2 -32 -25 -3 -16 0 -31 6 -35 8 -5 6 -12 -8 -22 -11 -9
-14 -16 -7 -16 6 0 12 -6 12 -14 0 -18 22 -26 51 -19 19 5 21 3 16 -18 -4 -13
-7 -30 -7 -36 0 -7 -9 -13 -19 -13 -11 0 -22 -6 -24 -12 -3 -8 -6 -6 -6 5 -1
9 4 17 9 17 15 0 12 26 -5 40 -9 7 -19 9 -23 5 -4 -4 -2 -10 4 -12 7 -2 10
-23 8 -51 -1 -26 0 -41 3 -34 7 18 20 14 26 -9 4 -15 2 -19 -10 -15 -11 5 -14
-1 -11 -27 6 -59 -16 -39 -35 32 -20 75 -37 92 -37 38 0 -18 -6 -39 -12 -46
-11 -10 -10 -14 4 -22 15 -8 15 -14 6 -35 -9 -20 -9 -27 1 -33 9 -6 10 -11 2
-15 -6 -4 -13 4 -17 19 -7 30 -18 23 -28 -17 -5 -23 -3 -28 11 -28 17 -1 17
-1 1 -14 -10 -7 -18 -20 -18 -29 0 -10 -5 -14 -15 -11 -8 4 -15 1 -15 -6 0
-16 -52 -9 -66 9 -9 11 -13 2 -18 -43 -15 -118 -67 -228 -84 -177 -3 8 0 11 6
7 7 -4 9 5 5 29 -4 23 -2 35 6 35 6 0 11 11 11 25 0 14 -4 25 -10 25 -5 0 -10
-8 -10 -17 0 -14 -2 -15 -9 -4 -10 15 -3 51 10 51 5 0 9 11 9 25 0 14 -4 25
-9 25 -5 0 -17 3 -26 6 -13 5 -15 2 -9 -20 4 -16 2 -26 -5 -26 -6 0 -11 11
-11 25 0 14 -5 25 -10 25 -6 0 -10 -6 -9 -12 3 -26 -1 -48 -10 -48 -5 0 -7 21
-5 46 5 54 -11 79 -58 90 -20 4 -26 9 -18 14 8 5 4 9 -12 13 -14 4 -30 22 -42
47 -10 22 -28 42 -38 46 -12 4 -17 12 -13 23 3 11 -3 25 -15 36 -11 10 -20 26
-20 36 0 10 -8 20 -17 22 -15 4 -15 5 2 6 11 1 31 10 45 21 14 11 32 20 41 20
9 0 21 12 28 26 10 22 9 25 -6 20 -10 -3 -25 -1 -33 5 -12 8 -9 9 9 4 16 -5
21 -4 17 4 -9 14 0 14 27 -1 20 -10 21 -10 8 5 -8 10 -9 17 -3 17 6 0 24 11
40 25 18 15 32 21 35 15 3 -6 4 -5 3 2 -1 7 12 42 30 78 17 36 35 88 39 115
11 90 44 183 67 191 23 7 38 -9 38 -40 0 -18 -1 -18 -18 -3 -27 24 -46 23 -30
-2 7 -11 15 -18 19 -15 29 18 77 -174 80 -326 2 -86 -23 -369 -37 -412 -3 -10
-1 -18 5 -18 6 0 11 9 11 19 0 11 4 22 10 26 5 3 7 12 3 20 -3 8 0 15 6 15 6
0 11 5 11 11 0 5 -4 7 -10 4 -6 -4 -10 6 -10 22 0 45 11 75 26 69 8 -3 11 0 8
8 -3 8 7 18 24 25 16 7 34 22 40 34 6 12 11 17 11 12 1 -6 -15 -32 -34 -59
-43 -60 -34 -84 11 -30 26 30 35 54 44 109 6 38 18 90 25 115 22 73 25 141 6
169 -9 15 -11 22 -3 18 15 -10 15 -6 2 27 -12 33 -47 35 -59 4 -5 -13 -5 -25
1 -29 5 -3 6 -14 2 -23 -4 -11 -1 -21 7 -27 17 -10 18 -131 1 -137 -8 -2 -8
-11 -1 -28 5 -14 8 -42 8 -62 -1 -26 -3 -30 -6 -12 -8 48 -25 78 -48 84 -31 8
-33 17 -27 129 4 76 8 100 20 105 9 3 24 14 34 24 10 10 26 18 36 18 16 1 16
1 -1 14 -9 7 -28 11 -43 8 -22 -4 -24 -2 -20 19 15 76 15 89 1 89 -11 0 -15
12 -15 46 0 32 4 44 13 41 6 -2 11 -14 9 -25z m-226 -98 c4 -20 4 -58 1 -84
-7 -58 -61 -193 -85 -212 -15 -12 -15 -10 1 14 12 19 14 29 5 34 -6 4 -8 3 -5
-2 3 -6 -4 -16 -15 -23 -18 -11 -20 -11 -15 3 4 9 1 13 -6 11 -19 -7 -41 11
-34 30 4 9 11 13 17 10 5 -3 10 -1 10 4 0 6 -5 11 -11 11 -5 0 -7 5 -3 12 6 9
9 9 12 0 2 -7 12 -12 23 -12 10 0 18 -5 17 -11 -2 -6 3 -14 10 -16 6 -3 13 2
13 11 2 25 4 29 22 64 13 23 14 32 5 32 -9 0 -9 3 2 11 12 9 11 10 -7 6 -13
-3 -26 -1 -29 4 -3 5 10 10 28 10 32 2 32 2 4 6 -28 4 -38 10 -77 45 -13 12
-28 16 -48 12 -40 -8 -81 3 -81 21 0 8 -5 15 -11 15 -6 0 -9 -7 -6 -15 8 -19
-3 -24 -28 -14 -18 7 -18 8 -1 8 12 1 16 6 12 17 -5 13 1 15 44 11 33 -4 48
-2 44 5 -4 6 -1 8 7 6 8 -3 13 -11 12 -17 -3 -12 1 -13 88 -15 41 -1 55 2 52
11 -3 7 -9 11 -13 8 -5 -3 -11 -1 -14 4 -4 5 4 12 16 14 13 2 26 5 30 6 4 0
10 -15 14 -35z m-647 -88 c1 -5 -5 -3 -12 3 -8 6 -17 8 -20 4 -4 -3 -7 -2 -7
3 0 6 6 16 12 22 10 10 14 9 20 -5 3 -10 7 -22 7 -27z m831 13 c0 -11 -4 -18
-10 -14 -5 3 -7 12 -3 20 7 21 13 19 13 -6z m-1012 -40 c-10 -5 -23 -20 -28
-32 -11 -22 -11 -22 6 -2 16 19 16 19 10 -15 -6 -31 -46 -103 -54 -95 -2 1 4
19 12 40 9 20 14 50 12 66 -2 16 0 32 5 35 5 3 9 17 9 32 l0 26 23 -22 c20
-21 21 -24 5 -33z m-61 19 c-3 -8 -6 -5 -6 6 -1 11 2 17 5 13 3 -3 4 -12 1
-19z m603 -8 c0 -5 -5 -10 -11 -10 -5 0 -7 5 -4 10 3 6 8 10 11 10 2 0 4 -4 4
-10z m871 -73 c-8 -8 -14 -8 -22 0 -8 8 -6 19 8 39 l18 28 3 -28 c2 -16 -1
-33 -7 -39z m-1891 35 c0 -4 -9 -13 -20 -20 -22 -13 -27 -3 -8 16 14 14 28 16
28 4z m634 -63 c25 -22 46 -47 46 -55 0 -8 5 -14 10 -14 6 0 10 -7 10 -16 0
-10 -6 -14 -15 -10 -10 3 -14 0 -12 -12 3 -18 37 -72 37 -58 0 5 7 2 17 -5 12
-11 17 -11 20 -2 3 9 12 7 31 -7 15 -10 38 -18 52 -17 25 2 50 -13 50 -31 0
-22 -68 -30 -88 -10 -8 8 -12 8 -12 1 0 -6 -11 -8 -26 -5 -22 4 -25 2 -22 -19
1 -13 7 -27 13 -31 6 -4 2 -13 -10 -22 -16 -12 -17 -15 -4 -16 8 0 19 4 25 8
5 5 30 7 56 4 39 -3 48 -8 58 -32 6 -15 10 -42 8 -61 -4 -42 -38 -53 -105 -33
-26 8 -71 13 -100 12 -48 -2 -56 1 -81 27 -38 42 -46 103 -16 136 16 18 16 19
-2 19 -18 1 -18 1 -1 11 9 5 17 17 17 24 0 8 5 15 11 15 8 0 8 5 -1 15 -10 12
-9 16 4 21 22 8 21 36 -1 32 -12 -2 -17 2 -14 12 7 27 1 74 -11 81 -9 6 -7 14
6 28 17 19 17 21 3 21 -10 0 -17 7 -17 15 0 24 14 18 64 -26z m-194 -160 c-26
-70 -26 -96 1 -42 12 24 25 41 29 38 5 -3 10 1 13 7 2 7 6 -2 9 -19 3 -25 0
-34 -13 -38 -23 -8 -30 -30 -19 -57 5 -13 9 -17 9 -10 1 19 19 14 31 -8 8 -15
7 -26 -2 -42 -12 -23 -14 -29 -17 -48 0 -5 -8 -10 -16 -10 -8 0 -15 -5 -15
-11 0 -8 -4 -8 -14 0 -11 9 -24 4 -60 -24 -54 -41 -73 -44 -86 -11 -11 30 -3
66 22 89 41 40 49 62 36 94 -7 16 -19 28 -25 26 -22 -8 -14 12 32 81 25 37 45
65 45 61 0 -3 10 1 22 10 22 14 23 14 31 -9 5 -16 1 -41 -13 -77z m-67 76 c-3
-9 -8 -14 -10 -11 -3 3 -2 9 2 15 9 16 15 13 8 -4z m1519 -10 c-2 -14 -6 -25
-8 -25 -2 0 -4 11 -4 25 0 14 4 25 9 25 4 0 6 -11 3 -25z m-1039 -44 c-2 -3
-18 10 -36 29 l-32 34 36 -30 c20 -16 34 -31 32 -33z m-503 5 c0 -2 -8 -10
-17 -17 -16 -13 -17 -12 -4 4 13 16 21 21 21 13z m1560 -57 c0 -5 -4 -9 -10
-9 -5 0 -10 7 -10 16 0 8 5 12 10 9 6 -3 10 -10 10 -16z m-950 -3 c0 -2 -7 -7
-16 -10 -8 -3 -12 -2 -9 4 6 10 25 14 25 6z m107 -2 c-3 -3 -12 -4 -19 -1 -8
3 -5 6 6 6 11 1 17 -2 13 -5z m-924 -41 c-7 -2 -19 -2 -25 0 -7 3 -2 5 12 5
14 0 19 -2 13 -5z m1587 -148 c0 -8 -4 -17 -10 -20 -6 -4 -10 5 -10 20 0 15 4
24 10 20 6 -3 10 -12 10 -20z m-771 -110 c13 -19 28 -35 34 -35 5 0 4 -7 -3
-15 -16 -19 -60 -16 -52 4 3 9 1 12 -6 7 -6 -3 -16 3 -22 15 -9 16 -18 19 -36
15 -30 -8 -31 7 -1 27 35 25 60 20 86 -18z m709 -94 c15 -12 22 -30 22 -52 l0
-33 -30 32 c-30 33 -36 52 -23 65 8 9 7 10 31 -12z m-428 -101 c0 -36 13 -39
28 -7 l11 22 0 -22 c1 -13 -3 -23 -9 -23 -5 0 -10 -6 -10 -14 0 -8 -7 -17 -16
-20 -20 -7 -9 -25 23 -37 33 -12 19 -32 -18 -24 -30 7 -41 -8 -14 -19 8 -3 15
-12 15 -20 0 -10 -6 -13 -15 -10 -8 4 -15 1 -15 -6 0 -10 -3 -10 -15 0 -8 7
-15 11 -16 9 -6 -40 -5 -76 4 -81 7 -4 -1 -6 -18 -5 -21 1 -30 -3 -33 -15 -3
-15 2 -17 28 -12 30 7 31 6 24 -22 -8 -34 -14 -43 -14 -22 0 20 -22 29 -41 17
-43 -27 -44 19 -2 59 13 12 19 22 14 22 -6 0 -11 10 -11 22 0 21 0 21 15 2 14
-18 15 -17 9 11 -4 17 -11 32 -16 33 -13 6 -9 36 8 60 8 12 13 26 9 31 -3 5
-1 12 5 16 5 3 10 15 10 26 0 12 7 19 20 19 13 0 20 7 20 20 0 11 5 20 10 20
6 0 10 -13 10 -30z m-450 2 c16 -6 29 -6 37 0 7 6 14 5 18 -2 3 -6 10 -8 15
-5 13 8 52 -14 46 -24 -6 -8 -120 -5 -186 5 -31 5 -33 7 -18 18 10 7 16 15 14
17 -8 8 49 1 74 -9z m153 -20 c-10 -10 -20 -14 -22 -9 -2 5 3 13 10 18 24 15
30 10 12 -9z m380 -46 c7 2 13 -6 13 -21 1 -18 -3 -25 -16 -25 -13 0 -17 5
-13 20 3 12 0 20 -6 20 -7 0 -9 5 -5 12 6 9 9 9 11 1 3 -7 10 -10 16 -7z
m-450 -37 c-3 -10 -14 -19 -24 -19 -10 0 -22 -7 -27 -16 -12 -22 -80 -45 -109
-38 -17 5 -23 2 -23 -9 0 -11 -8 -15 -25 -13 -14 1 -28 5 -31 9 -3 3 -12 3
-20 0 -11 -4 -14 5 -14 36 0 35 4 43 26 51 43 17 64 12 65 -12 1 -21 1 -21 10
4 13 35 48 47 65 23 12 -17 14 -17 20 -2 3 10 17 17 31 17 18 0 24 -4 19 -15
-3 -8 -1 -15 4 -15 5 0 12 10 15 21 9 27 25 6 18 -22z m27 25 c0 -8 -5 -12
-10 -9 -6 4 -8 11 -5 16 9 14 15 11 15 -7z m375 6 c-3 -5 -12 -10 -18 -10 -7
0 -6 4 3 10 19 12 23 12 15 0z m-692 -51 c15 -24 0 -70 -21 -67 -9 2 -20 8
-24 13 -5 6 -12 4 -19 -5 -9 -13 -10 -13 -6 2 3 9 1 18 -4 20 -7 2 -6 13 2 31
10 21 19 27 37 25 14 -2 29 -10 35 -19z m-103 -27 c0 -20 -3 -23 -9 -12 -6 8
-7 18 -5 22 3 4 0 8 -6 8 -6 0 -8 5 -5 10 11 17 25 1 25 -28z m558 -20 c3 -22
22 -32 22 -12 0 6 5 10 11 10 8 0 8 -5 -1 -15 -10 -12 -10 -18 0 -30 9 -10 9
-15 1 -15 -18 0 -13 -17 11 -40 12 -11 16 -20 10 -20 -20 0 -52 -39 -46 -55 4
-8 1 -15 -5 -15 -9 0 -9 -5 -1 -20 6 -11 7 -20 3 -20 -4 0 -3 -4 4 -8 21 -14
19 -46 -4 -57 -13 -5 -23 -15 -23 -22 0 -9 -7 -10 -26 -3 -33 13 -32 13 -27
-12 2 -13 -1 -30 -7 -38 -9 -13 -12 -13 -24 3 -16 21 -46 23 -46 2 0 -17 17
-20 22 -4 2 5 13 -1 26 -15 21 -25 21 -26 2 -23 -11 2 -22 6 -26 9 -3 4 -12 4
-20 1 -9 -3 -14 0 -12 7 2 7 -3 15 -9 17 -7 3 -13 0 -13 -6 0 -6 -5 -11 -12
-11 -6 0 -8 3 -5 7 4 3 2 12 -4 19 -8 10 -5 15 15 20 14 3 26 10 26 16 0 5 -4
6 -10 3 -5 -3 -10 0 -11 7 0 10 -2 10 -6 1 -2 -7 -9 -13 -14 -13 -5 0 -18 -9
-28 -19 -16 -16 -17 -20 -5 -25 21 -8 17 -20 -12 -33 -19 -9 -32 -9 -43 -2
-13 8 -12 9 5 4 14 -4 24 0 28 10 4 12 0 14 -22 10 -15 -3 -22 -3 -15 1 23 11
88 76 85 86 -1 5 6 7 19 3 15 -5 19 -4 14 4 -4 7 -1 18 5 26 7 9 8 15 2 15 -5
0 -13 7 -16 15 -4 11 0 15 11 13 24 -4 29 33 7 49 -12 8 -21 9 -29 3 -8 -7
-21 -7 -36 -1 -18 7 -19 10 -7 10 21 1 138 110 138 128 0 7 3 13 8 13 4 0 13
13 20 29 11 25 16 28 40 22 17 -5 28 -15 30 -29z m290 -3 c-3 -8 -7 -3 -11 10
-4 17 -3 21 5 13 5 -5 8 -16 6 -23z m-38 1 c-18 -12 -30 -13 -30 -2 0 4 10 9
22 9 18 2 20 0 8 -7z m-52 -53 c7 3 10 -1 6 -11 -8 -21 -30 -21 -38 0 -10 27
-6 40 7 23 7 -9 18 -14 25 -12z m-882 -18 c3 -6 2 -15 -4 -21 -7 -7 -5 -18 4
-36 10 -20 11 -28 1 -34 -8 -5 -7 -8 6 -8 29 0 19 -23 -22 -52 -43 -31 -51
-33 -51 -17 0 5 5 7 10 4 6 -3 10 -1 10 4 0 6 -6 11 -14 11 -25 0 -29 20 -16
82 12 56 14 59 38 53 22 -5 24 -4 13 9 -11 13 -11 16 2 16 9 0 19 -5 23 -11z
m411 -55 c-31 -26 -70 -33 -61 -10 5 14 75 46 84 39 3 -3 -8 -16 -23 -29z
m473 16 c0 -5 -5 -10 -11 -10 -5 0 -7 5 -4 10 3 6 8 10 11 10 2 0 4 -4 4 -10z
m-122 -63 c6 -5 16 -6 21 -2 5 3 12 1 16 -5 3 -5 1 -10 -5 -10 -7 0 -9 -7 -6
-16 4 -12 2 -15 -9 -10 -9 3 -20 -3 -27 -14 -7 -11 -20 -20 -28 -20 -13 1 -13
2 0 13 8 7 21 23 28 35 11 20 11 23 -4 20 -9 -2 -19 2 -21 9 -4 12 14 12 35 0z
m-388 -7 c-8 -5 -19 -10 -25 -10 -5 0 -3 5 5 10 8 5 20 10 25 10 6 0 3 -5 -5
-10z m50 -6 c0 -8 -4 -12 -10 -9 -5 3 -10 10 -10 16 0 5 5 9 10 9 6 0 10 -7
10 -16z m-410 -44 c0 -5 -4 -10 -10 -10 -5 0 -10 5 -10 10 0 6 5 10 10 10 6 0
10 -4 10 -10z m876 -52 c-2 -10 0 -16 5 -12 5 3 9 -22 9 -56 0 -44 -3 -59 -12
-54 -7 4 -8 3 -4 -5 12 -18 -32 -97 -93 -171 -31 -37 -65 -78 -76 -92 -31 -37
-89 -78 -113 -78 -24 0 -38 16 -20 23 19 7 -40 57 -67 57 -11 0 -30 -7 -41
-15 -18 -14 -17 -14 16 -15 23 0 30 -3 22 -9 -7 -4 -25 -6 -39 -3 -19 4 -24 1
-21 -9 3 -8 14 -14 25 -14 33 0 38 -13 9 -26 -35 -16 -33 -29 7 -30 29 0 30
-1 13 -12 -37 -23 -76 -64 -76 -80 0 -9 -4 -18 -9 -21 -5 -4 -7 2 -4 13 4 15
0 18 -19 14 -14 -3 -29 2 -37 10 -10 13 -9 18 8 27 21 11 29 40 12 40 -5 0
-12 7 -15 16 -4 11 -1 14 12 10 18 -6 20 -4 23 42 1 9 6 23 12 29 7 10 2 12
-24 8 -29 -4 -30 -3 -9 4 14 5 21 10 15 11 -5 1 4 8 20 15 l30 14 -40 1 c-31
1 -35 3 -20 9 11 5 23 7 28 4 4 -2 7 0 7 4 0 12 61 34 73 26 6 -3 7 -1 4 4 -4
6 7 16 23 23 55 23 257 216 320 307 32 45 36 48 43 29 4 -11 6 -29 3 -38z
m-966 22 c0 -5 -7 -10 -15 -10 -8 0 -15 -8 -15 -17 0 -13 3 -14 12 -5 19 19
25 14 31 -29 3 -23 13 -46 24 -54 17 -13 17 -15 -7 -37 -13 -13 -28 -22 -32
-20 -13 4 -9 -8 10 -28 14 -15 20 -52 13 -78 -1 -1 -10 2 -21 8 -10 6 -17 16
-15 23 3 6 -5 18 -17 26 -18 10 -20 10 -10 0 24 -25 12 -30 -17 -7 -27 21 -44
47 -22 34 5 -4 7 3 4 14 -3 11 -9 20 -13 20 -13 0 -19 40 -7 41 8 0 8 2 0 6
-14 5 -18 24 -5 22 20 -3 32 2 32 16 0 22 43 85 58 85 6 0 12 -4 12 -10z
m-154 -32 c-10 -6 -20 -7 -24 -3 -9 8 20 25 31 18 5 -3 2 -10 -7 -15z m74 -38
c0 -5 -7 -10 -15 -10 -8 0 -15 5 -15 10 0 6 7 10 15 10 8 0 15 -4 15 -10z
m-40 -25 c0 -8 -2 -15 -4 -15 -2 0 -6 7 -10 15 -3 8 -1 15 4 15 6 0 10 -7 10
-15z m216 -32 c-10 -10 -19 5 -10 18 6 11 8 11 12 0 2 -7 1 -15 -2 -18z m331
3 c0 -8 -6 -12 -15 -9 -11 5 -11 7 0 14 7 5 13 9 14 9 0 0 1 -6 1 -14z m-310
-38 c-3 -8 -6 -5 -6 6 -1 11 2 17 5 13 3 -3 4 -12 1 -19z m483 -8 c0 -5 -5
-10 -11 -10 -5 0 -7 5 -4 10 3 6 8 10 11 10 2 0 4 -4 4 -10z m485 -7 c33 -83
46 -225 19 -202 -7 6 -12 20 -11 31 2 20 -10 31 -45 42 -12 4 -18 16 -18 37 0
29 2 31 30 27 27 -4 30 -2 24 16 -4 12 -13 28 -20 37 -8 9 -11 19 -7 22 11 12
21 8 28 -10z m-638 -15 c-3 -8 -6 -5 -6 6 -1 11 2 17 5 13 3 -3 4 -12 1 -19z
m633 -153 c0 -8 -4 -15 -10 -15 -5 0 -7 7 -4 15 4 8 8 15 10 15 2 0 4 -7 4
-15z m134 -11 c3 -8 2 -12 -4 -9 -6 3 -10 10 -10 16 0 14 7 11 14 -7z m-117
-36 c13 -12 23 -33 23 -47 -1 -25 -1 -25 -15 -6 -8 11 -27 32 -42 47 -25 25
-26 28 -9 28 11 0 30 -10 43 -22z m-720 -4 c-3 -3 -12 -4 -19 -1 -8 3 -5 6 6
6 11 1 17 -2 13 -5z m1142 -3 c11 -7 10 -11 -7 -20 -16 -9 -21 -7 -25 9 -5 21
8 26 32 11z m-45 -26 c4 -11 -1 -15 -19 -15 -18 0 -23 4 -19 15 4 8 12 15 19
15 7 0 15 -7 19 -15z m599 8 c-7 -2 -21 -2 -30 0 -10 3 -4 5 12 5 17 0 24 -2
18 -5z m192 -4 c22 0 34 -3 27 -6 -6 -2 -9 -9 -6 -15 4 -6 -1 -8 -12 -5 -11 3
-46 9 -79 13 -49 6 -55 8 -35 15 14 4 34 6 45 3 11 -2 38 -4 60 -5z m-1195
-39 c-8 -5 -2 -14 19 -29 27 -19 31 -29 31 -67 0 -24 -2 -44 -5 -44 -4 0 -20
7 -37 16 -16 9 -28 12 -25 7 2 -4 1 -17 -4 -28 -5 -13 -8 12 -8 67 -1 70 2 90
17 104 16 17 17 17 20 -1 2 -9 -1 -21 -8 -25z m1299 21 c7 -5 11 -13 7 -19 -3
-6 4 -13 16 -15 21 -4 21 -4 -3 -6 -14 0 -34 6 -45 14 -12 9 -14 14 -6 15 7 0
10 5 7 10 -8 12 5 13 24 1z m51 -5 c0 -2 -7 -6 -15 -10 -8 -3 -15 -1 -15 4 0
6 7 10 15 10 8 0 15 -2 15 -4z m-743 -22 c-3 -3 -12 -4 -19 -1 -8 3 -5 6 6 6
11 1 17 -2 13 -5z m356 -14 c25 0 40 -5 44 -15 9 -24 -1 -28 -57 -20 -36 5
-53 13 -61 27 -10 19 -9 20 12 15 13 -4 41 -7 62 -7z m487 -9 c0 -17 -26 -30
-48 -24 -30 8 -28 26 3 21 14 -3 25 -1 25 3 0 5 5 9 10 9 6 0 10 -4 10 -9z
m-142 -19 c9 -7 8 -20 -6 -63 l-19 -54 -7 47 c-4 26 -11 50 -17 53 -5 4 -9 10
-9 16 0 11 40 12 58 1z m-1713 -12 c3 -6 -1 -7 -9 -4 -18 7 -21 14 -7 14 6 0
13 -4 16 -10z m575 -31 c0 -18 -4 -28 -10 -24 -5 3 -10 20 -10 36 0 18 4 28
10 24 6 -3 10 -20 10 -36z m484 12 l15 -28 -54 -19 c-30 -10 -56 -16 -59 -13
-2 2 -7 20 -11 41 -8 40 -1 45 62 47 26 1 35 -5 47 -28z m709 22 c2 -5 7 -20
11 -35 7 -31 -8 -37 -38 -15 -13 10 -16 20 -12 35 7 21 30 30 39 15z m226 -16
c6 -8 12 -48 14 -90 2 -69 5 -79 32 -108 17 -18 24 -29 18 -25 -8 5 -13 1 -13
-10 0 -16 -1 -16 -20 1 -11 10 -17 22 -13 28 3 6 1 7 -5 3 -19 -11 17 -59 37
-50 27 12 64 10 68 -4 3 -7 -1 -10 -11 -6 -10 4 -16 1 -16 -9 0 -8 10 -17 21
-20 14 -4 20 -11 16 -21 -8 -20 14 -35 38 -25 11 4 14 8 6 8 -8 1 -11 4 -8 8
4 3 -3 17 -15 30 -16 18 -18 22 -6 18 9 -4 24 -18 33 -31 8 -13 21 -24 29 -24
14 0 129 -118 166 -170 l21 -29 -27 -17 c-32 -22 -60 -8 -57 27 1 13 -1 18 -4
11 -4 -10 -8 -10 -19 -1 -8 6 -11 16 -7 22 3 6 1 7 -5 3 -13 -8 -182 157 -182
178 0 15 -27 29 -40 21 -4 -3 -22 11 -39 30 -33 38 -38 65 -20 124 9 30 8 44
-5 75 -24 58 -17 88 13 53z m-2973 -56 c6 -26 4 -33 -7 -29 -8 3 -15 21 -17
44 -4 47 14 36 24 -15z m2377 32 c-7 -2 -21 -2 -30 0 -10 3 -4 5 12 5 17 0 24
-2 18 -5z m-996 -65 c-3 -8 -6 -5 -6 6 -1 11 2 17 5 13 3 -3 4 -12 1 -19z
m-647 -8 c0 -5 -4 -10 -10 -10 -5 0 -10 5 -10 10 0 6 5 10 10 10 6 0 10 -4 10
-10z m1690 -34 c0 -39 -3 -44 -25 -48 -14 -3 -25 -1 -25 3 0 5 5 9 10 9 15 0
12 40 -2 40 -11 1 27 40 38 40 2 0 4 -20 4 -44z m315 27 c19 -15 19 -15 -10
-8 -37 8 -57 25 -29 25 10 0 28 -8 39 -17z m290 -13 l20 -25 -22 19 c-13 11
-23 24 -23 29 0 6 1 8 3 6 1 -2 11 -15 22 -29z m-1622 -10 c40 -15 52 -35 15
-25 -36 10 -68 28 -68 38 0 5 3 7 8 5 4 -2 24 -10 45 -18z m1152 -49 c-4 -23
-11 -41 -17 -41 -6 0 -8 12 -4 31 3 17 6 41 6 52 0 15 3 18 11 10 7 -7 8 -26
4 -52z m385 10 c0 -21 -16 -2 -24 29 -7 24 -6 24 8 6 9 -11 16 -27 16 -35z
m-1553 -16 c-7 -7 -15 -11 -19 -8 -5 2 -8 0 -8 -6 0 -15 34 -31 64 -31 23 0
26 -4 26 -35 0 -38 -20 -50 -76 -43 -29 3 -29 3 -27 71 0 37 4 75 7 84 6 14 8
14 26 -2 15 -13 16 -20 7 -30z m660 19 c-3 -3 -12 -4 -19 -1 -8 3 -5 6 6 6 11
1 17 -2 13 -5z m683 -33 c0 -29 -24 -71 -41 -71 -10 0 -19 6 -20 13 0 6 -2 26
-3 42 -4 50 2 57 35 39 16 -8 29 -18 29 -23z m-1473 -23 c-3 -7 -5 -2 -5 12 0
14 2 19 5 13 2 -7 2 -19 0 -25z m-2062 12 c-3 -5 -15 -10 -25 -10 -10 0 -22
-4 -25 -10 -3 -5 -11 -10 -16 -10 -16 0 1 21 25 30 29 12 48 12 41 0z m857
-17 c15 -15 28 -35 28 -44 0 -10 5 -21 10 -24 6 -3 10 -11 10 -16 0 -6 -7 -3
-16 6 -9 8 -29 22 -45 30 -22 12 -29 23 -29 45 0 37 6 37 42 3z m2693 -5 c-4
-18 -12 -37 -18 -43 -7 -7 -8 -4 -3 8 3 11 9 30 12 43 9 36 17 29 9 -8z
m-1173 -15 c5 -36 3 -52 -6 -42 -8 10 -14 79 -6 79 4 0 10 -17 12 -37z m-2483
13 c-2 -2 -15 -9 -29 -15 -24 -11 -24 -11 -6 3 16 13 49 24 35 12z m2065 -54
c-4 -9 -6 -21 -5 -25 1 -5 -5 -29 -12 -55 -8 -26 -13 -68 -13 -94 1 -30 -3
-49 -11 -52 -7 -3 -13 -12 -13 -20 0 -18 -38 -41 -62 -38 -9 2 -24 -7 -33 -20
l-17 -23 6 29 c4 16 18 45 32 65 13 19 24 42 24 49 0 8 6 12 12 10 20 -7 43
21 30 34 -8 8 -13 7 -18 -5 -7 -18 -24 -23 -24 -8 0 5 7 17 16 25 8 9 13 20
10 25 -3 5 2 8 12 7 9 0 16 5 14 12 -1 8 2 11 7 8 5 -3 14 8 20 24 10 31 -2
43 -13 14 -4 -9 -9 -14 -13 -11 -6 7 22 72 41 96 9 12 12 10 14 -8 2 -12 0
-30 -4 -39z m-1976 26 c-3 -7 -17 -14 -33 -16 -29 -4 -75 -29 -75 -42 0 -4 18
-12 40 -19 l40 -12 -13 -32 c-13 -31 -16 -32 -66 -30 -29 1 -55 3 -57 6 -3 2
0 17 6 32 9 24 8 26 -7 20 -10 -4 -36 -14 -58 -22 -22 -8 -49 -22 -60 -31 -19
-16 -19 -16 -5 1 7 10 43 32 78 48 36 16 72 38 79 49 17 23 46 41 88 51 44 10
47 10 43 -3z m3237 -18 c3 -5 -1 -10 -10 -10 -9 0 -13 5 -10 10 3 6 8 10 10
10 2 0 7 -4 10 -10z m-3450 -9 c9 -16 -9 -20 -23 -5 -10 12 -10 14 2 14 8 0
17 -4 21 -9z m573 -5 c10 -10 -11 -26 -34 -26 -15 0 -24 -6 -24 -15 0 -19 -21
-19 -67 0 -45 19 -38 30 10 17 43 -12 53 -5 30 21 -18 20 -17 20 31 13 27 -3
51 -8 54 -10z m2546 0 c-3 -8 -12 -12 -20 -9 -12 4 -13 0 -4 -22 12 -32 13
-46 1 -25 -23 40 -22 58 1 63 13 2 24 5 25 6 1 0 0 -5 -3 -13z m824 -126 c5
-14 30 -48 55 -75 l45 -51 -50 -26 -49 -26 -33 51 c-17 29 -40 78 -50 110 -17
57 -17 59 1 73 17 12 17 13 1 14 -26 0 -22 12 14 42 l33 26 11 -56 c7 -32 17
-68 22 -82z m-2848 110 c0 -5 -5 -10 -11 -10 -5 0 -7 5 -4 10 3 6 8 10 11 10
2 0 4 -4 4 -10z m1580 -58 c0 -13 -3 -13 -13 3 -8 11 -17 29 -20 40 -6 17 -4
17 13 -4 11 -13 20 -30 20 -39z m1655 18 c21 -22 37 -40 34 -40 -3 0 -23 18
-44 40 -21 22 -37 40 -34 40 3 0 23 -18 44 -40z m-1336 -35 c0 -5 -6 1 -14 15
-8 14 -14 30 -14 35 0 6 6 -1 14 -15 8 -14 14 -29 14 -35z m-1904 25 c3 -5 1
-10 -4 -10 -6 0 -11 5 -11 10 0 6 2 10 4 10 3 0 8 -4 11 -10z m58 -9 c4 -1 7
-5 7 -11 0 -5 -11 -9 -25 -8 -14 1 -25 8 -25 14 0 7 8 11 18 9 9 -2 20 -4 25
-4z m1271 0 c3 -4 21 -7 41 -5 30 2 35 -1 35 -19 0 -16 -3 -18 -12 -9 -7 7
-24 12 -39 12 -34 0 -59 9 -59 21 0 12 27 12 34 0z m-2137 -40 c-14 -39 -29
-30 -15 9 5 17 14 28 18 25 5 -3 3 -18 -3 -34z m3177 -78 c-10 -125 -11 -264
-1 -378 8 -100 -1 -102 -28 -5 -10 36 -27 92 -37 125 -13 40 -21 102 -25 187
l-6 128 44 20 c24 11 48 20 53 20 5 0 6 -40 0 -97z m-1044 62 c0 -8 -4 -15
-10 -15 -5 0 -10 7 -10 15 0 8 5 15 10 15 6 0 10 -7 10 -15z m1685 -25 c21
-22 36 -42 34 -45 -3 -2 -25 16 -49 40 -24 25 -40 45 -34 45 5 0 27 -18 49
-40z m-2907 8 c7 -7 12 -30 12 -52 0 -21 -3 -37 -6 -33 -3 3 -26 0 -50 -8 -43
-13 -44 -13 -44 10 0 12 -3 36 -6 53 -6 30 -5 31 32 35 22 2 41 4 45 5 3 1 10
-3 17 -10z m2373 -88 c-8 -21 -10 -16 -10 31 -1 31 2 59 7 63 11 12 14 -67 3
-94z m-1318 62 c-3 -12 -10 -22 -15 -22 -5 0 -7 3 -5 8 2 4 7 16 11 26 9 25
17 16 9 -12z m-1818 -32 c16 0 20 -27 7 -48 -18 -28 -82 17 -82 58 0 39 11 44
37 15 13 -14 30 -25 38 -25z m-324 19 c11 -5 17 -14 14 -20 -4 -6 -13 -5 -25
1 -10 5 -32 10 -49 10 -17 0 -31 5 -31 10 0 13 66 13 91 -1z m-451 -19 c0 -5
-5 -10 -11 -10 -5 0 -7 5 -4 10 3 6 8 10 11 10 2 0 4 -4 4 -10z m211 -51 c-9
-22 -10 -22 -10 -3 -1 11 2 24 6 27 12 12 14 0 4 -24z m3944 -25 c29 -65 28
-64 15 -64 -6 0 -21 24 -35 54 -28 61 -29 66 -15 66 6 0 21 -25 35 -56z
m-2405 16 c0 -11 -4 -20 -10 -20 -5 0 -10 9 -10 20 0 11 5 20 10 20 6 0 10 -9
10 -20z m1344 -33 c6 -15 7 -29 4 -32 -9 -9 -38 6 -38 21 0 8 -4 14 -10 14 -5
0 -10 12 -10 26 0 25 1 26 23 12 12 -9 26 -27 31 -41z m-2660 4 c3 -4 -4 -25
-14 -48 l-18 -41 -49 16 c-26 9 -50 18 -51 19 -8 4 11 64 24 77 12 13 20 13
59 -1 25 -8 47 -18 49 -22z m3994 -9 c34 -44 14 -39 -23 5 -16 20 -24 34 -16
32 8 -3 25 -19 39 -37z m438 12 c4 -16 0 -49 -10 -80 -12 -37 -15 -68 -10
-103 5 -37 2 -55 -10 -72 -20 -29 -20 -39 -1 -39 8 0 15 4 15 8 0 5 10 8 22 7
29 -2 84 -91 145 -235 8 -19 19 -43 24 -52 10 -19 1 -80 -11 -73 -9 5 -35 -23
-28 -30 3 -3 25 -1 49 3 34 7 50 5 70 -7 14 -9 27 -20 28 -24 2 -9 -73 -67
-87 -67 -16 0 -79 76 -92 110 -8 19 -29 68 -47 109 -39 84 -38 103 7 95 28 -6
30 -4 27 17 -4 25 -2 24 -92 16 -15 -2 -27 12 -49 54 l-30 56 13 114 c8 63 17
121 22 130 4 9 4 20 -2 26 -14 14 6 63 26 63 8 0 18 -12 21 -26z m-480 -2 c15
-9 28 -52 16 -52 -5 0 -17 10 -26 23 l-17 22 7 -25 c6 -21 5 -23 -8 -13 -18
15 -29 7 -21 -15 4 -12 1 -11 -10 3 -16 21 -13 40 4 29 6 -3 13 3 16 15 5 22
19 26 39 13z m204 -2 c0 -5 -2 -10 -4 -10 -3 0 -8 5 -11 10 -3 6 -1 10 4 10 6
0 11 -4 11 -10z m-2126 -15 c-4 -8 -11 -15 -16 -15 -6 0 -5 6 2 15 7 8 14 15
16 15 2 0 1 -7 -2 -15z m-874 -26 c0 -6 -4 -7 -10 -4 -5 3 -10 11 -10 16 0 6
5 7 10 4 6 -3 10 -11 10 -16z m-30 2 c0 -5 -7 -11 -15 -15 -15 -5 -20 5 -8 17
9 10 23 9 23 -2z m-868 -43 c19 -37 24 -65 13 -76 -2 -2 -23 7 -47 20 -23 13
-44 23 -46 24 -1 0 5 17 13 37 20 48 40 47 67 -5z m785 20 c-3 -8 -6 -5 -6 6
-1 11 2 17 5 13 3 -3 4 -12 1 -19z m1883 -44 c26 -60 25 -71 -6 -77 -24 -4
-26 -2 -21 27 2 17 0 42 -4 54 -8 22 -5 42 7 42 3 0 14 -21 24 -46z m1109 42
c-13 -12 -99 -53 -99 -47 0 4 12 13 28 20 15 8 34 17 42 22 16 8 36 12 29 5z
m-3497 -28 c-7 -7 -12 -8 -12 -2 0 6 3 14 7 17 3 4 9 5 12 2 2 -3 -1 -11 -7
-17z m3074 -17 c-3 -5 -15 -11 -26 -14 -19 -5 -19 -4 -4 26 14 26 18 28 26 14
5 -10 7 -21 4 -26z m-1867 2 c-10 -11 -10 -14 -1 -9 6 4 12 2 12 -3 0 -6 -10
-11 -22 -12 -23 0 -23 0 1 -10 29 -11 21 -22 -32 -44 -38 -16 -38 -16 -35 7 2
19 9 23 33 21 30 -2 30 -2 6 11 l-23 13 27 21 c33 26 53 29 34 5z m2345 1 c4
-9 4 -19 1 -22 -3 -3 -5 0 -5 7 0 7 -5 9 -12 5 -6 -4 -8 -3 -4 4 3 5 0 13 -6
15 -8 4 -7 6 3 6 9 1 20 -6 23 -15z m-4624 -8 c0 -2 -7 -7 -16 -10 -8 -3 -12
-2 -9 4 6 10 25 14 25 6z m4170 -36 c7 -14 9 -22 5 -17 -5 4 -17 0 -27 -10
-10 -9 -18 -13 -18 -8 0 4 8 14 18 22 12 10 14 16 4 19 -6 3 -9 10 -6 16 7 11
7 11 24 -22z m-3757 1 c25 -11 48 -16 52 -13 4 4 6 1 4 -6 -5 -16 -12 -16 -66
-1 -24 6 -43 18 -43 25 0 18 0 18 53 -5z m-279 -28 c-11 -66 -64 -88 -64 -28
0 30 5 37 33 49 17 8 33 15 35 15 2 1 0 -16 -4 -36z m111 -19 l-15 -39 6 40
c6 44 16 65 21 49 2 -6 -4 -28 -12 -50z m1482 0 c17 -65 17 -66 -9 -63 -13 2
-33 -2 -45 -9 -30 -16 -50 -15 -57 4 -11 30 -6 52 12 50 11 -1 18 7 20 24 3
24 35 50 57 46 5 -2 15 -25 22 -52z m273 36 c8 -5 11 -10 5 -10 -5 0 -17 5
-25 10 -8 5 -10 10 -5 10 6 0 17 -5 25 -10z m630 0 c0 -5 -4 -10 -10 -10 -5 0
-10 5 -10 10 0 6 5 10 10 10 6 0 10 -4 10 -10z m1920 -10 c0 -5 -2 -10 -4 -10
-3 0 -8 5 -11 10 -3 6 -1 10 4 10 6 0 11 -4 11 -10z m124 -29 c-4 -3 -9 0 -11
7 -5 13 -42 -19 -61 -53 -7 -13 -12 -12 -32 10 -27 29 -29 26 35 52 45 19 51
19 62 5 7 -9 10 -18 7 -21z m-4623 -49 c-6 -2 -11 -10 -11 -18 0 -12 -5 -12
-25 3 -32 23 -31 29 8 65 l32 31 3 -39 c2 -21 -1 -40 -7 -42z m938 37 c13 -38
13 -39 2 -39 -5 0 -11 9 -14 20 -3 11 -12 20 -21 20 -29 0 -15 26 16 29 3 1
11 -13 17 -30z m211 11 c0 -5 -5 -10 -11 -10 -5 0 -7 5 -4 10 3 6 8 10 11 10
2 0 4 -4 4 -10z m140 -6 c0 -2 -9 -4 -21 -4 -11 0 -18 4 -14 10 5 8 35 3 35
-6z m2820 1 c0 -8 -4 -15 -10 -15 -5 0 -7 7 -4 15 4 8 8 15 10 15 2 0 4 -7 4
-15z m-3402 -7 c7 -7 12 -19 12 -27 0 -12 -3 -11 -18 2 -10 10 -27 17 -38 17
-16 0 -17 2 -4 10 20 13 34 12 48 -2z m322 -18 c0 -33 -37 -67 -55 -49 -7 7
-5 13 5 19 13 8 12 10 -2 10 -37 0 -8 44 30 47 18 1 22 -4 22 -27z m2139 -14
c15 -62 15 -64 -19 -70 -97 -19 -87 -22 -96 31 -4 26 -8 53 -9 58 0 6 16 13
35 16 74 13 77 12 89 -35z m-2798 -26 c15 0 10 -32 -12 -80 l-20 -45 -25 40
c-30 49 -38 78 -30 110 l6 24 36 -24 c20 -14 41 -25 45 -25z m2572 -49 c-7
-10 -13 8 -18 55 l-4 49 13 -50 c7 -27 11 -52 9 -54z m1232 78 c-4 -5 -12 -9
-19 -9 -7 0 -21 -9 -31 -20 -10 -11 -24 -20 -32 -20 -7 0 -13 -5 -13 -12 0 -9
-3 -9 -12 1 -11 10 -9 14 6 23 10 6 26 18 35 27 10 10 22 16 28 14 6 -2 14 1
18 7 3 6 11 8 16 4 5 -3 7 -10 4 -15z m-4363 2 c2 7 10 -23 17 -66 7 -44 14
-85 16 -90 1 -6 -4 -16 -11 -23 -12 -11 -14 -9 -15 10 0 13 -4 31 -7 41 -7 17
-9 17 -28 -2 -14 -13 -26 -16 -35 -10 -8 5 -10 9 -5 9 5 0 1 9 -9 20 -16 18
-16 21 -1 44 8 14 13 32 10 40 -3 9 -1 16 6 16 6 0 8 -6 4 -12 -4 -7 4 -3 17
9 15 15 25 19 30 12 4 -8 8 -7 11 2z m5118 -16 c0 -8 -4 -15 -10 -15 -5 0 -10
7 -10 15 0 8 5 15 10 15 6 0 10 -7 10 -15z m-2967 -16 c-6 -21 -9 -23 -56 -34
-25 -5 -28 -3 -25 17 3 21 28 34 70 37 12 1 15 -5 11 -20z m317 8 c0 -9 -10
-12 -30 -9 -44 6 -47 22 -6 22 23 0 36 -5 36 -13z m-1326 -112 c3 -49 3 -84 0
-77 -3 6 -11 9 -17 5 -7 -3 -9 -3 -5 2 10 11 -10 45 -27 45 -11 0 -15 13 -15
55 0 54 1 55 24 49 22 -5 24 -3 20 18 -4 17 -3 19 4 8 6 -8 13 -55 16 -105z
m1110 80 c11 -8 16 -18 12 -22 -3 -4 -21 8 -39 26 -31 32 -16 30 27 -4z m526
-42 c0 -32 -4 -63 -8 -69 -4 -5 -28 -8 -54 -6 l-48 4 0 54 c0 61 12 73 73 74
l37 0 0 -57z m2490 10 c39 -78 43 -88 25 -73 -8 7 -15 16 -15 21 0 5 -11 27
-25 49 -27 43 -29 50 -17 50 4 0 19 -21 32 -47z m-4416 21 c41 -16 -11 -79
-71 -88 -49 -7 -54 3 -27 60 14 29 22 34 49 34 18 0 40 -3 49 -6z m4003 -127
l-2 -99 -26 4 c-26 4 -49 -11 -49 -33 0 -10 53 -9 88 2 8 2 24 -20 43 -61 16
-36 23 -57 15 -47 -7 9 -26 17 -41 17 -24 0 -26 -3 -21 -25 4 -14 2 -25 -4
-25 -5 0 -10 -7 -10 -15 0 -15 32 -15 90 1 10 3 29 -16 54 -52 20 -31 36 -57
34 -59 -13 -10 -127 -41 -135 -36 -18 11 -50 84 -67 149 -9 34 -29 90 -46 123
-16 34 -30 69 -30 78 0 10 -9 44 -20 77 l-20 59 36 32 c40 36 83 46 101 24 9
-10 12 -46 10 -114z m110 64 c-1 -39 -5 -67 -9 -65 -14 9 -8 134 7 134 2 0 3
-31 2 -69z m-1318 55 c-2 -1 -19 -8 -38 -14 -29 -10 -32 -10 -21 3 7 8 24 15
38 15 14 0 23 -2 21 -4z m-1859 -92 l0 -54 -49 0 c-55 0 -61 7 -61 70 0 43 8
48 72 42 l38 -4 0 -54z m2663 41 c-3 -8 -11 -15 -18 -15 -6 0 -28 -15 -47 -34
-30 -30 -36 -32 -45 -17 -9 13 -1 22 46 52 56 37 75 41 64 14z m-2053 -11 c15
-5 45 -82 36 -91 -2 -3 -16 13 -30 35 -14 22 -30 43 -36 47 -14 9 -13 28 3 21
6 -3 19 -8 27 -12z m-2297 -6 c40 -96 39 -94 20 -72 -10 12 -25 24 -34 27 -12
4 -15 13 -12 31 6 28 18 34 26 14z m415 -78 l-1 -35 -4 36 c-3 26 -10 38 -24
42 -12 3 -19 14 -19 29 1 22 1 22 25 -7 17 -21 24 -41 23 -65z m959 -24 c-3
-6 -30 -12 -61 -14 l-56 -3 0 60 0 60 58 3 57 3 3 -49 c2 -27 1 -54 -1 -60z
m-228 47 c0 -34 -3 -50 -7 -40 -7 17 -4 97 4 97 2 0 4 -26 3 -57z m835 32 c13
-19 15 -37 10 -75 -4 -28 -10 -50 -15 -50 -5 0 -6 7 -3 15 4 9 -3 19 -20 26
-23 11 -26 18 -26 61 0 40 3 48 19 48 10 0 26 -11 35 -25z m-172 -30 c3 -14 1
-25 -3 -25 -5 0 -9 11 -9 25 0 14 2 25 4 25 2 0 6 -11 8 -25z m545 -17 c-3 -7
-5 -2 -5 12 0 14 2 19 5 13 2 -7 2 -19 0 -25z m2038 22 c3 -5 1 -10 -4 -10 -6
0 -11 5 -11 10 0 6 2 10 4 10 3 0 8 -4 11 -10z m-1150 -20 c-3 -5 -19 -10 -36
-10 -16 0 -29 5 -29 10 0 6 16 10 36 10 21 0 33 -4 29 -10z m340 -31 c0 -13 2
-28 5 -34 3 -5 5 -23 5 -40 0 -47 -25 -36 -46 20 -23 62 -24 72 -1 78 28 7 37
2 37 -24z m-1452 -21 c5 -35 4 -38 -19 -38 -20 0 -24 5 -24 31 0 16 4 28 9 25
5 -3 12 1 15 10 8 22 12 17 19 -28z m2386 21 c-11 -11 -24 -18 -27 -14 -4 4 2
13 12 21 30 21 39 17 15 -7z m-4339 -1 c0 -7 -5 -20 -11 -28 -9 -13 -10 -12
-5 3 3 9 1 17 -4 17 -6 0 -10 5 -10 10 0 6 7 10 15 10 8 0 15 -6 15 -12z m847
-10 c-3 -8 -6 -5 -6 6 -1 11 2 17 5 13 3 -3 4 -12 1 -19z m-888 -38 c0 -9 -4
-8 -9 5 -5 11 -9 27 -9 35 0 9 4 8 9 -5 5 -11 9 -27 9 -35z m915 -2 c5 -32 4
-48 -3 -48 -6 0 -11 6 -11 13 0 8 -18 20 -40 27 -22 7 -40 19 -40 27 0 17 14
17 50 -2 30 -15 30 -15 30 11 0 39 6 26 14 -28z m-659 22 c28 -17 33 -27 39
-76 4 -31 5 -59 3 -61 -2 -2 -27 9 -56 23 -36 19 -50 32 -47 43 3 9 8 33 12
54 3 20 9 37 11 37 3 0 20 -9 38 -20z m326 -5 c-1 -4 -26 -10 -57 -11 -64 -3
-65 6 -1 17 49 8 59 7 58 -6z m1879 -1 c0 -12 7 -15 24 -12 31 6 51 -5 43 -25
-5 -12 -13 -14 -35 -7 -20 5 -34 4 -41 -3 -8 -8 -11 -1 -11 26 0 20 5 37 10
37 6 0 10 -7 10 -16z m-2610 -37 c0 -8 -6 -14 -14 -14 -8 0 -12 6 -9 14 3 7 9
13 14 13 5 0 9 -6 9 -13z m1997 -64 c0 -29 -3 -53 -8 -53 -5 0 -9 6 -9 13 0 7
-9 20 -20 30 -22 19 -18 42 6 33 9 -3 14 2 14 14 0 14 -5 18 -17 13 -16 -6
-16 -5 -5 10 21 25 37 1 39 -60z m2953 61 c0 -8 -4 -12 -10 -9 -5 3 -10 10
-10 16 0 5 5 9 10 9 6 0 10 -7 10 -16z m-4910 -16 c0 -13 -23 -5 -28 10 -2 7
2 10 12 6 9 -3 16 -11 16 -16z m30 3 c0 -6 -4 -13 -10 -16 -5 -3 -10 1 -10 9
0 9 5 16 10 16 6 0 10 -4 10 -9z m3033 -21 c3 -11 1 -18 -4 -14 -5 3 -9 12 -9
20 0 20 7 17 13 -6z m186 10 c15 0 21 -5 18 -13 -3 -8 -1 -20 4 -28 8 -12 10
-12 18 1 8 11 12 9 21 -15 14 -37 0 -52 -57 -61 -40 -6 -43 -5 -53 20 -5 15
-13 46 -17 68 -6 40 -5 41 18 35 13 -4 35 -7 48 -7z m-304 -94 c7 -44 6 -46
-17 -46 -13 0 -29 -5 -36 -12 -9 -9 -12 -9 -12 0 0 7 5 12 11 12 6 0 8 7 5 16
-5 12 -2 15 10 10 14 -5 15 0 10 39 -8 50 2 82 15 48 4 -11 11 -41 14 -67z
m1585 63 c0 -6 -4 -7 -10 -4 -5 3 -10 11 -10 16 0 6 5 7 10 4 6 -3 10 -11 10
-16z m-3180 -4 c0 -12 -13 -15 -60 -15 -77 0 -79 18 -2 23 31 2 58 4 60 5 1 1
2 -5 2 -13z m1222 -21 c-5 -28 10 -44 40 -44 14 0 16 6 12 30 -4 17 -2 30 3
30 10 0 23 -97 23 -167 0 -32 -1 -33 -44 -33 l-43 0 -7 49 c-7 53 2 161 14
161 4 0 5 -12 2 -26z m1788 5 c0 -11 -4 -17 -10 -14 -5 3 -10 -1 -10 -9 0 -8
-9 -20 -20 -26 -11 -6 -18 -15 -15 -21 4 -5 1 -8 -6 -7 -7 2 -18 -8 -26 -22
-11 -22 -13 -23 -13 -5 0 25 70 124 88 125 6 0 12 -9 12 -21z m-3363 -25 c31
-14 32 -15 26 -67 -3 -28 -6 -53 -7 -54 -1 -1 -28 1 -60 4 l-59 6 7 59 c3 33
9 64 12 69 6 11 31 5 81 -17z m-297 -48 c0 -71 -5 -76 -83 -76 l-38 0 3 63 3
62 50 6 c28 3 53 7 58 7 4 1 7 -27 7 -62z m1224 34 c-6 -6 -10 -2 -11 12 -2
16 1 18 10 9 7 -7 8 -14 1 -21z m-1998 -6 c61 -32 57 -28 46 -51 -6 -10 -15
-31 -22 -48 l-12 -30 -12 25 c-6 14 -23 39 -38 55 -27 29 -35 55 -21 68 8 9 3
11 59 -19z m531 -11 c-3 -10 -5 -4 -5 12 0 17 2 24 5 18 2 -7 2 -21 0 -30z
m1663 23 c0 -9 -9 -14 -20 -13 -22 1 -27 13 -7 20 21 9 27 7 27 -7z m957 -8
c-3 -8 -6 -5 -6 6 -1 11 2 17 5 13 3 -3 4 -12 1 -19z m-3550 -20 c-3 -8 -6 -5
-6 6 -1 11 2 17 5 13 3 -3 4 -12 1 -19z m4922 -93 c11 -33 31 -91 45 -130 15
-38 25 -79 23 -90 -3 -14 -5 -12 -6 7 -1 28 -15 43 -31 33 -17 -11 23 -74 50
-77 33 -4 41 -38 8 -38 -38 0 -50 -13 -34 -36 10 -13 11 -23 4 -31 -8 -10 -4
-12 16 -11 14 1 26 6 26 11 0 4 12 6 28 3 39 -6 40 -7 12 -15 -14 -4 -24 -12
-23 -17 1 -5 -11 -9 -25 -9 -30 0 -41 -15 -20 -29 9 -5 30 -1 59 13 51 25 36
38 135 -112 35 -54 64 -102 64 -107 0 -5 -13 -14 -30 -22 -16 -7 -30 -17 -31
-23 0 -5 -5 1 -10 14 -8 19 -5 29 12 47 18 19 20 26 9 39 -16 19 -30 19 -30 0
0 -9 -6 -12 -16 -8 -8 3 -13 12 -10 19 3 8 -1 14 -9 14 -17 0 -20 -26 -5 -35
6 -3 10 -13 10 -21 0 -8 -4 -12 -10 -9 -5 3 -10 -1 -10 -10 0 -9 -5 -13 -11
-9 -6 3 -15 1 -19 -6 -6 -9 -13 -4 -26 16 -11 16 -27 38 -36 48 -10 11 -18 24
-18 28 0 17 -43 67 -53 61 -6 -4 -7 -1 -2 7 4 7 -5 40 -23 79 -18 39 -39 112
-52 180 -11 62 -27 125 -34 140 -14 26 -14 51 -2 84 13 36 14 44 6 57 -7 11
-12 11 -27 0 -17 -14 -17 -14 -2 5 9 11 19 29 23 40 6 18 9 17 31 -10 13 -17
33 -57 44 -90z m-539 90 c0 -8 -2 -15 -4 -15 -2 0 -6 7 -10 15 -3 8 -1 15 4
15 6 0 10 -7 10 -15z m1098 -45 c19 -33 30 -60 25 -59 -10 0 -73 95 -73 109 0
24 18 6 48 -50z m-3221 -62 c-2 -18 -4 -4 -4 32 0 36 2 50 4 33 2 -18 2 -48 0
-65z m621 23 c8 -59 8 -63 -12 -71 -29 -11 -36 -1 -40 56 -3 40 0 52 18 66 11
9 22 15 23 14 2 -1 7 -31 11 -65z m-1999 13 c1 -1 0 -7 -3 -13 -4 -6 -16 -4
-34 5 -15 7 -42 17 -59 20 -32 6 -40 14 -27 27 5 5 110 -28 123 -39z m708 -36
c-2 -18 -4 -6 -4 27 0 33 2 48 4 33 2 -15 2 -42 0 -60z m552 55 c0 -25 -1 -25
-8 -8 -5 11 -7 23 -4 28 8 14 13 7 12 -20z m2256 17 c3 -5 1 -10 -4 -10 -6 0
-11 5 -11 10 0 6 2 10 4 10 3 0 8 -4 11 -10z m-2579 -116 c-4 -10 -23 -14 -61
-14 l-55 0 0 60 0 59 58 3 57 3 3 -49 c2 -27 1 -55 -2 -62z m131 94 c-3 -8 -6
-5 -6 6 -1 11 2 17 5 13 3 -3 4 -12 1 -19z m137 -45 c14 -51 14 -53 -5 -53
-17 0 -19 7 -18 63 0 34 2 58 4 52 2 -5 11 -34 19 -62z m337 37 c11 -39 10
-150 -1 -150 -5 0 -10 7 -10 16 0 9 -6 22 -14 28 -12 9 -22 82 -17 129 2 19
36 0 42 -23z m2668 -59 c20 -62 21 -85 1 -65 -13 13 -49 132 -42 139 9 9 18
-7 41 -74z m-4966 17 c7 -4 7 -11 -2 -21 -9 -12 -9 -16 1 -19 9 -3 8 -13 -6
-41 -9 -21 -14 -42 -11 -48 4 -5 4 -16 2 -23 -4 -11 -16 -12 -53 -5 -26 5 -49
11 -51 13 -11 11 27 115 51 139 14 14 26 23 26 20 0 -4 6 -1 12 5 10 10 14 10
17 0 2 -7 9 -16 14 -20z m428 -9 c-5 -13 -12 -36 -15 -51 -4 -16 -11 -28 -16
-28 -6 0 -1 24 10 53 11 28 20 54 20 56 0 2 2 2 5 -1 3 -3 1 -16 -4 -29z
m2049 -20 c3 -24 4 -52 2 -61 -4 -18 -29 -31 -43 -22 -14 8 -11 121 4 127 24
10 32 0 37 -44z m1168 18 c6 3 12 0 12 -6 0 -6 -7 -12 -15 -12 -8 -1 -23 -2
-32 -3 -10 0 -19 7 -21 17 -3 14 1 16 20 8 13 -4 29 -6 36 -4z m539 -49 c-2
-13 -4 -3 -4 22 0 25 2 35 4 23 2 -13 2 -33 0 -45z m-4407 11 c0 -5 -4 -9 -10
-9 -5 0 -10 7 -10 16 0 8 5 12 10 9 6 -3 10 -10 10 -16z m3550 1 c0 -5 -4 -10
-10 -10 -5 0 -10 5 -10 10 0 6 5 10 10 10 6 0 10 -4 10 -10z m-3210 -25 c0 -8
-9 -24 -20 -35 l-20 -20 0 20 c0 11 5 20 10 20 6 0 10 7 10 15 0 8 5 15 10 15
6 0 10 -7 10 -15z m2841 -67 c20 -3 33 0 38 10 7 12 10 11 16 -7 9 -29 6 -31
-39 -33 -20 -1 -36 -6 -36 -12 0 -6 -5 -4 -10 4 -5 8 -9 40 -8 70 1 48 2 50 5
14 4 -38 7 -42 34 -46z m-2884 66 c-3 -3 -12 -4 -19 -1 -8 3 -5 6 6 6 11 1 17
-2 13 -5z m4468 -4 c3 -5 1 -10 -4 -10 -6 0 -11 5 -11 10 0 6 2 10 4 10 3 0 8
-4 11 -10z m-3855 -14 c25 -7 45 -17 45 -22 -1 -41 -18 -134 -24 -134 -21 0
-77 24 -88 38 -7 9 -13 42 -13 74 0 66 3 67 80 44z m1599 -67 c1 -19 8 -44 16
-55 15 -21 20 -44 8 -44 -26 1 -34 23 -38 101 -2 53 -1 75 5 59 4 -14 8 -41 9
-61z m-939 50 c0 -15 -5 -16 -42 -6 -28 7 -36 12 -25 16 33 12 67 6 67 -10z
m-1091 -10 c-10 -6 -3 -23 25 -69 49 -79 44 -96 -21 -64 -26 13 -54 24 -61 24
-8 0 -11 7 -8 18 2 9 7 32 11 50 8 39 30 63 51 55 12 -4 13 -8 3 -14z m791 11
c0 -5 -24 -10 -54 -10 -30 0 -58 5 -61 10 -4 6 17 10 54 10 34 0 61 -4 61 -10z
m4280 -29 c0 -11 -122 -51 -134 -44 -8 5 32 27 79 44 29 10 55 10 55 0z
m-4803 -23 c-3 -8 -6 -5 -6 6 -1 11 2 17 5 13 3 -3 4 -12 1 -19z m3243 -51 c8
-28 9 -52 4 -57 -5 -5 -33 -10 -63 -12 l-54 -3 -17 67 -18 67 62 3 c33 2 64
-1 67 -7 3 -5 12 -32 19 -58z m1807 41 c23 -25 59 -106 51 -114 -5 -4 -88 121
-88 132 0 11 18 2 37 -18z m-4716 -51 c-1 -28 -7 -56 -13 -62 -8 -7 -9 -2 -4
15 3 14 6 45 6 69 0 24 3 41 7 37 4 -3 6 -30 4 -59z m829 41 c0 -5 -3 -7 -7
-6 -5 1 -25 -2 -45 -6 -39 -8 -73 -2 -65 11 6 10 117 10 117 1z m290 -8 c0 -7
-13 -7 -38 -1 -2 1 -1 5 3 11 6 10 35 2 35 -10z m3860 -102 c0 -18 -18 -4 -55
45 -57 73 -55 81 4 17 28 -30 51 -58 51 -62z m-2456 37 c9 -35 16 -66 16 -68
0 -3 -21 -10 -47 -16 -27 -7 -55 -14 -64 -17 -12 -3 -18 8 -27 47 -7 28 -12
59 -12 69 0 20 50 43 106 49 6 0 19 -28 28 -64z m123 43 c-3 -8 -6 -5 -6 6 -1
11 2 17 5 13 3 -3 4 -12 1 -19z m1933 -40 c33 -35 60 -67 60 -73 0 -5 7 -23
15 -39 16 -29 12 -50 -8 -43 -7 2 -13 15 -13 28 -2 44 -4 49 -14 49 -5 0 -7
-7 -4 -15 4 -9 0 -15 -9 -15 -8 0 -17 5 -19 11 -3 8 -15 6 -42 -6 -27 -13 -35
-22 -31 -34 3 -9 -9 0 -27 20 -80 89 -99 119 -73 119 8 0 15 5 15 12 0 6 3 8
6 5 4 -4 20 5 36 18 16 14 34 25 39 25 5 0 36 -28 69 -62z m-2503 30 c-3 -8
-6 -5 -6 6 -1 11 2 17 5 13 3 -3 4 -12 1 -19z m-1913 -3 c20 -8 36 -22 36 -29
0 -8 3 -21 6 -30 5 -12 0 -16 -22 -15 -16 0 -38 4 -49 8 -13 5 -31 2 -52 -10
-18 -10 -33 -15 -33 -11 0 15 16 30 35 34 16 3 19 11 17 36 -2 37 7 40 62 17z
m3666 -10 c11 -13 10 -14 -4 -9 -9 3 -16 10 -16 15 0 13 6 11 20 -6z m-2200
-10 c0 -13 -12 -14 -48 -6 -2 1 0 6 3 11 10 16 45 12 45 -5z m1027 -17 c-3 -8
-6 -5 -6 6 -1 11 2 17 5 13 3 -3 4 -12 1 -19z m-2185 -56 l-4 -69 46 -13 c54
-15 61 -38 20 -65 -22 -14 -28 -15 -35 -4 -6 10 -9 8 -9 -8 0 -13 -4 -23 -8
-23 -13 0 -33 50 -26 61 3 6 -2 17 -12 24 -18 13 -18 14 -2 27 15 11 16 19 9
48 -23 90 -23 90 2 90 24 0 24 -2 19 -68z m1815 6 c-2 -13 -4 -3 -4 22 0 25 2
35 4 23 2 -13 2 -33 0 -45z m1602 2 c1 -10 -6 -7 -18 10 -11 13 -17 28 -14 33
6 11 32 -23 32 -43z m-2449 -20 c0 -14 7 -34 15 -44 10 -14 15 -43 14 -95 -1
-67 -2 -73 -12 -49 -7 14 -20 35 -30 46 -17 18 -18 31 -11 114 4 61 10 86 15
73 4 -11 8 -31 9 -45z m-2388 23 c37 -31 48 -44 48 -58 0 -23 -18 -34 -62 -38
l-46 -5 -6 55 c-10 82 7 94 66 46z m1558 -27 c0 -30 -4 -58 -10 -61 -6 -4 -10
17 -10 54 0 34 4 61 10 61 6 0 10 -24 10 -54z m1528 36 c39 6 40 5 46 -31 15
-89 5 -106 -64 -112 l-35 -4 -8 59 c-9 64 -2 120 13 97 5 -10 20 -12 48 -9z
m-3038 -3 c0 -11 -27 -12 -34 -1 -2 4 4 9 15 9 10 1 19 -2 19 -8z m1730 -68
l0 -69 -62 2 -63 1 0 59 0 60 55 4 c30 2 57 6 59 8 10 9 11 1 11 -65z m2921
-2 l30 -38 -21 -21 c-13 -13 -19 -28 -15 -38 4 -11 -2 -9 -19 7 -14 13 -23 27
-21 32 3 4 0 11 -6 15 -8 4 -9 3 -5 -4 4 -7 4 -12 1 -12 -13 0 -65 41 -65 51
0 5 15 22 32 38 37 33 40 32 89 -30z m-2588 40 c25 0 27 -3 27 -39 0 -30 -4
-39 -17 -40 -10 0 -36 -2 -58 -3 l-40 -2 2 40 c1 22 2 44 2 49 1 4 13 5 29 1
15 -4 39 -7 55 -6z m3197 -4 c0 -8 -2 -15 -4 -15 -2 0 -6 7 -10 15 -3 8 -1 15
4 15 6 0 10 -7 10 -15z m-5463 -27 c-3 -7 -5 -2 -5 12 0 14 2 19 5 13 2 -7 2
-19 0 -25z m5419 -12 c40 -48 52 -86 24 -79 -9 2 -24 20 -34 38 -10 19 -25 36
-32 39 -15 6 -19 46 -5 46 5 0 26 -20 47 -44z m-2016 12 c0 -18 -2 -20 -9 -8
-6 8 -7 18 -5 22 9 14 14 9 14 -14z m-2927 -13 c27 -11 20 -27 -10 -21 -16 4
-41 9 -58 12 -36 6 -43 13 -26 23 12 8 56 1 94 -14z m2557 -85 c-1 -33 -18 15
-24 65 l-6 50 15 -50 c8 -27 15 -57 15 -65z m-283 10 c4 -69 4 -70 -20 -70
-28 0 -37 20 -37 92 0 41 3 47 23 50 12 2 24 3 26 1 2 -1 6 -34 8 -73z m-2747
56 c0 -8 -5 -18 -11 -21 -6 -4 -14 -17 -19 -29 -8 -18 -9 -17 -6 9 1 17 6 36
10 43 10 17 26 15 26 -2z m920 4 c0 -5 -5 -10 -11 -10 -5 0 -7 5 -4 10 3 6 8
10 11 10 2 0 4 -4 4 -10z m355 -9 c3 -5 -5 -17 -17 -25 -26 -18 -38 -5 -18 19
14 17 26 19 35 6z m4399 -39 c4 -24 2 -32 -6 -30 -7 3 -13 22 -15 43 -2 44 11
35 21 -13z m-37 16 c-3 -8 -6 -5 -6 6 -1 11 2 17 5 13 3 -3 4 -12 1 -19z
m-1587 2 c0 -5 -5 -10 -11 -10 -5 0 -7 5 -4 10 3 6 8 10 11 10 2 0 4 -4 4 -10z
m-2835 -29 c-6 -21 -45 -30 -45 -12 0 11 42 43 48 37 2 -3 1 -14 -3 -25z m968
-24 c14 -22 13 -26 -25 -71 l-41 -48 -38 44 c-21 23 -38 47 -39 51 -1 21 47
46 86 47 33 0 45 -5 57 -23z m3659 -17 c22 -32 23 -37 7 -27 -11 7 -22 20 -25
29 -5 18 -24 25 -24 9 0 -5 -15 -12 -32 -16 -25 -6 -28 -9 -14 -12 15 -4 16
-7 5 -14 -10 -6 -10 -9 -1 -9 6 0 12 -4 12 -10 0 -5 -5 -9 -11 -7 -6 1 -14 -4
-17 -12 -3 -9 0 -11 8 -6 10 6 12 4 7 -8 -3 -9 -2 -19 3 -22 6 -4 10 -1 10 4
0 6 4 11 9 11 12 0 7 -33 -6 -37 -5 -2 -15 8 -23 22 -7 14 -17 25 -21 25 -4 0
-5 16 -2 35 5 34 -8 48 -23 24 -4 -8 -9 -8 -17 0 -6 6 -9 12 -6 14 4 4 119 45
130 46 3 1 17 -17 31 -39z m-2172 16 c0 -10 -16 -17 -45 -22 -26 -3 -52 -12
-59 -20 -14 -14 -26 -9 -26 11 0 11 14 16 90 31 13 3 27 7 29 10 8 7 11 4 11
-10z m817 -8 c-3 -8 -6 -5 -6 6 -1 11 2 17 5 13 3 -3 4 -12 1 -19z m-1610 -10
c-3 -8 -6 -5 -6 6 -1 11 2 17 5 13 3 -3 4 -12 1 -19z m-2337 -43 c0 -30 -3
-55 -7 -55 -9 1 -70 56 -93 85 -14 17 -14 18 8 6 18 -10 26 -9 44 4 39 27 48
20 48 -40z m3964 19 c3 -8 2 -12 -4 -9 -6 3 -10 10 -10 16 0 14 7 11 14 -7z
m1507 -1 c13 -16 12 -17 -3 -4 -17 13 -22 21 -14 21 2 0 10 -8 17 -17z m-1123
-18 c-3 -3 -9 2 -12 12 -6 14 -5 15 5 6 7 -7 10 -15 7 -18z m-4964 -31 c-16
-20 -36 -46 -44 -58 -35 -53 -100 -120 -100 -105 0 9 7 22 15 29 8 7 15 17 15
23 0 5 25 35 55 65 30 31 55 61 55 68 0 12 21 25 29 18 2 -2 -9 -20 -25 -40z
m1444 17 c6 -16 9 -38 8 -48 -2 -10 1 -21 7 -24 5 -4 1 -15 -11 -27 -17 -17
-25 -18 -59 -9 -27 7 -45 20 -56 39 -19 33 -21 48 -7 48 5 0 26 11 46 25 47
32 60 31 72 -4z m4152 19 c0 -5 -2 -10 -4 -10 -3 0 -8 5 -11 10 -3 6 -1 10 4
10 6 0 11 -4 11 -10z m294 -1 c-3 -6 0 -15 7 -20 11 -7 10 -9 -3 -9 -11 0 -18
8 -18 20 0 11 5 20 11 20 5 0 7 -5 3 -11z m-3297 -31 c-3 -8 -6 -5 -6 6 -1 11
2 17 5 13 3 -3 4 -12 1 -19z m3363 12 c0 -5 -2 -10 -4 -10 -3 0 -8 5 -11 10
-3 6 -1 10 4 10 6 0 11 -4 11 -10z m-325 -10 c-3 -5 -1 -20 6 -32 l11 -23 -21
23 c-21 21 -21 42 0 42 6 0 7 -4 4 -10z m541 -80 c47 -77 49 -80 35 -80 -14 0
-79 102 -87 135 -9 39 -2 31 52 -55z m-2848 54 c15 -6 15 -7 -3 -14 -33 -14
-45 -11 -45 10 0 19 3 19 48 4z m883 -49 c10 -33 19 -63 19 -66 0 -10 -122
-31 -130 -22 -4 4 -14 36 -22 71 l-16 62 37 1 c20 0 45 4 56 9 31 13 36 8 56
-55z m1782 42 c32 -40 95 -144 101 -168 6 -22 6 -22 -7 -7 -12 15 -19 16 -53
6 -21 -6 -45 -11 -51 -9 -7 1 -13 -3 -13 -9 0 -5 5 -10 12 -10 6 0 9 -2 6 -5
-16 -17 -59 20 -98 84 -23 40 -41 73 -39 75 2 2 26 11 54 22 44 16 47 19 25
25 -24 6 -24 6 5 11 17 3 32 6 35 6 3 1 13 -8 23 -21z m-3693 5 c0 -5 -7 -17
-15 -28 -14 -19 -14 -19 -15 2 0 11 3 24 7 27 9 10 23 9 23 -1z m355 -1 c3 -5
1 -12 -4 -15 -5 -3 -11 1 -15 9 -6 16 9 21 19 6z m-1558 -23 c-3 -8 -6 -5 -6
6 -1 11 2 17 5 13 3 -3 4 -12 1 -19z m943 1 c16 -30 8 -31 -13 -3 -10 13 -13
24 -8 24 6 0 15 -9 21 -21z m580 7 c0 4 11 -6 25 -22 39 -45 32 -59 -12 -24
-14 11 -32 20 -39 20 -8 0 -14 9 -14 20 0 18 3 19 20 10 11 -6 20 -8 20 -4z
m2391 -3 c13 -16 12 -17 -3 -4 -17 13 -22 21 -14 21 2 0 10 -8 17 -17z m150
-66 c3 -21 3 -35 -1 -30 -10 11 -30 73 -30 92 1 27 22 -18 31 -62z m-4587 -19
c-4 -5 -14 -2 -23 6 -10 9 -22 16 -27 16 -17 1 -56 39 -49 50 3 5 27 -6 55
-27 27 -20 47 -41 44 -45z m4773 58 c-3 -8 -3 -17 1 -20 10 -10 11 -36 2 -36
-15 0 -22 20 -16 46 4 13 9 24 12 24 3 0 4 -6 1 -14z m-1543 -63 c8 -38 12
-71 8 -75 -8 -7 -115 -28 -120 -23 -6 5 -32 109 -32 126 0 12 14 20 48 27 82
17 79 19 96 -55z m-964 37 c0 -13 -7 -20 -20 -20 -25 0 -27 27 -2 33 9 3 18 5
20 6 1 0 2 -8 2 -19z m-580 -5 c0 -8 -4 -15 -10 -15 -5 0 -7 7 -4 15 4 8 8 15
10 15 2 0 4 -7 4 -15z m-1183 -17 c-3 -8 -6 -5 -6 6 -1 11 2 17 5 13 3 -3 4
-12 1 -19z m166 -27 c28 -51 37 -80 14 -46 -37 55 -58 95 -49 95 5 0 21 -22
35 -49z m155 40 c10 -6 10 -11 -3 -21 -14 -12 -18 -11 -26 1 -17 28 -1 40 29
20z m536 -53 c39 -45 42 -53 25 -64 -22 -13 -132 -4 -151 13 -16 14 -14 18 30
54 26 22 50 39 54 39 3 0 23 -19 42 -42z m474 20 c7 -7 12 -25 12 -40 0 -25
-4 -28 -32 -28 -17 0 -28 3 -25 7 4 3 2 12 -5 20 -8 10 -7 18 8 33 23 23 27
23 42 8z m-2133 -73 c-15 -25 -29 -45 -32 -45 -2 0 -3 3 -1 8 39 78 53 102 56
94 2 -6 -9 -32 -23 -57z m3267 36 c2 -17 1 -28 -4 -25 -8 5 -12 54 -4 54 2 0
6 -13 8 -29z m-1202 -16 c0 -19 -5 -25 -20 -25 -20 0 -20 1 -3 25 22 30 23 30
23 0z m97 -7 c-3 -7 -5 -2 -5 12 0 14 2 19 5 13 2 -7 2 -19 0 -25z m2655 7
c-3 -16 2 -33 13 -45 10 -11 15 -23 12 -27 -4 -3 -7 -1 -7 5 0 7 -7 12 -15 12
-8 0 -15 6 -16 13 0 10 -2 10 -6 0 -2 -7 -9 -13 -14 -13 -5 0 0 18 11 40 24
46 29 50 22 15z m-3618 -60 c-18 -13 -34 -11 -34 3 0 11 45 28 49 19 1 -5 -5
-14 -15 -22z m963 3 c-3 -7 -5 -2 -5 12 0 14 2 19 5 13 2 -7 2 -19 0 -25z"/>
<path d="M3360 4550 c0 -5 4 -10 9 -10 6 0 13 5 16 10 3 6 -1 10 -9 10 -9 0
-16 -4 -16 -10z"/>
<path d="M3517 4395 c3 -8 9 -12 14 -9 12 7 11 11 -5 17 -10 4 -13 1 -9 -8z"/>
<path d="M3070 4330 c0 -5 5 -10 11 -10 5 0 7 5 4 10 -3 6 -8 10 -11 10 -2 0
-4 -4 -4 -10z"/>
<path d="M3495 4329 c-4 -6 -17 -14 -29 -19 -16 -7 -17 -9 -4 -9 25 -1 68 17
68 29 0 13 -27 13 -35 -1z"/>
<path d="M3605 4330 c-3 -5 1 -13 10 -16 22 -9 29 1 11 15 -10 8 -16 9 -21 1z"/>
<path d="M3558 4323 c7 -3 16 -2 19 1 4 3 -2 6 -13 5 -11 0 -14 -3 -6 -6z"/>
<path d="M3418 4303 c7 -3 16 -2 19 1 4 3 -2 6 -13 5 -11 0 -14 -3 -6 -6z"/>
<path d="M3608 4293 c7 -3 16 -2 19 1 4 3 -2 6 -13 5 -11 0 -14 -3 -6 -6z"/>
<path d="M3618 4273 c7 -3 16 -2 19 1 4 3 -2 6 -13 5 -11 0 -14 -3 -6 -6z"/>
<path d="M3643 3858 c3 -10 2 -18 -3 -18 -6 0 -10 -4 -10 -8 0 -4 9 -8 20 -8
24 0 26 12 3 34 -16 16 -16 16 -10 0z"/>
<path d="M4049 3863 c-5 -52 -4 -61 8 -51 11 9 11 14 1 26 -11 13 -10 15 4 9
12 -4 15 -2 11 9 -5 15 -22 20 -24 7z"/>
<path d="M3885 3809 c8 -74 22 -83 21 -13 -1 37 -6 59 -14 62 -10 3 -12 -8 -7
-49z"/>
<path d="M3674 3355 c-3 -8 -3 -18 0 -24 4 -5 2 -12 -4 -16 -17 -10 -11 -25
10 -25 22 0 29 34 9 45 -6 4 -8 13 -5 21 3 8 3 14 0 14 -2 0 -7 -7 -10 -15z"/>
<path d="M3630 3330 c0 -5 5 -10 10 -10 6 0 10 5 10 10 0 6 -4 10 -10 10 -5 0
-10 -4 -10 -10z"/>
<path d="M3458 4063 c7 -3 16 -2 19 1 4 3 -2 6 -13 5 -11 0 -14 -3 -6 -6z"/>
<path d="M2968 3673 c7 -3 16 -2 19 1 4 3 -2 6 -13 5 -11 0 -14 -3 -6 -6z"/>
<path d="M2980 3650 c0 -5 5 -10 11 -10 5 0 7 5 4 10 -3 6 -8 10 -11 10 -2 0
-4 -4 -4 -10z"/>
<path d="M2960 3611 c0 -5 9 -7 20 -4 11 3 20 7 20 9 0 2 -9 4 -20 4 -11 0
-20 -4 -20 -9z"/>
<path d="M3015 3610 c3 -5 10 -10 16 -10 5 0 9 5 9 10 0 6 -7 10 -16 10 -8 0
-12 -4 -9 -10z"/>
<path d="M2988 3543 c6 -2 18 -2 25 0 6 3 1 5 -13 5 -14 0 -19 -2 -12 -5z"/>
<path d="M2770 3559 c0 -5 -4 -7 -10 -4 -5 3 -10 2 -10 -4 0 -5 9 -9 19 -8 11
0 17 6 14 14 -6 16 -13 17 -13 2z"/>
<path d="M3240 2785 c0 -8 7 -15 15 -15 8 0 15 7 15 15 0 8 -7 15 -15 15 -8 0
-15 -7 -15 -15z"/>
<path d="M3324 2495 c-15 -13 -25 -28 -20 -32 4 -4 14 0 21 11 8 10 18 16 22
13 5 -3 9 3 9 14 0 10 -1 19 -2 19 0 0 -14 -11 -30 -25z"/>
<path d="M5553 1793 c-7 -2 -13 -9 -13 -14 0 -5 6 -9 13 -9 6 0 21 -13 32 -30
13 -20 22 -25 27 -17 4 7 8 15 8 18 0 7 -47 60 -52 58 -2 0 -9 -3 -15 -6z"/>
<path d="M5630 1720 c0 -5 5 -10 11 -10 5 0 7 5 4 10 -3 6 -8 10 -11 10 -2 0
-4 -4 -4 -10z"/>
<path d="M3670 2066 c0 -9 5 -16 10 -16 6 0 10 4 10 9 0 6 -4 13 -10 16 -5 3
-10 -1 -10 -9z"/>
<path d="M3405 1759 c-4 -6 -13 -8 -21 -5 -9 3 -14 -1 -14 -13 0 -14 6 -17 24
-14 17 4 24 11 23 24 -1 22 -3 23 -12 8z"/>
<path d="M5160 1840 c0 -5 5 -10 10 -10 6 0 10 5 10 10 0 6 -4 10 -10 10 -5 0
-10 -4 -10 -10z"/>
<path d="M5170 1790 c-8 -5 -11 -12 -7 -16 4 -4 13 -2 19 4 15 15 7 24 -12 12z"/>
<path d="M4677 1699 c-9 -6 -14 -15 -11 -21 4 -6 6 -31 5 -55 -3 -79 33 -41
44 48 5 41 -4 48 -38 28z"/>
<path d="M4675 1550 c-8 -14 14 -110 25 -110 5 0 5 14 0 30 -5 17 -5 30 -1 30
4 0 6 14 3 30 -4 30 -16 38 -27 20z"/>
<path d="M5910 1080 c0 -5 7 -10 15 -10 8 0 15 5 15 10 0 6 -7 10 -15 10 -8 0
-15 -4 -15 -10z"/>
<path d="M5943 1035 c0 -8 4 -15 9 -15 4 0 8 7 8 15 0 8 -4 15 -8 15 -5 0 -9
-7 -9 -15z"/>
<path d="M2513 1435 c0 -22 2 -30 4 -17 2 12 2 30 0 40 -3 9 -5 -1 -4 -23z"/>
<path d="M1880 1389 c0 -5 5 -7 10 -4 6 3 10 8 10 11 0 2 -4 4 -10 4 -5 0 -10
-5 -10 -11z"/>
<path d="M5440 1169 c0 -5 5 -7 10 -4 6 3 10 8 10 11 0 2 -4 4 -10 4 -5 0 -10
-5 -10 -11z"/>
<path d="M5477 1174 c7 -3 9 -12 6 -20 -3 -8 1 -14 10 -14 12 0 27 19 27 36 0
2 -12 4 -27 3 -16 0 -23 -3 -16 -5z"/>
<path d="M5557 1021 c3 -11 13 -19 24 -18 17 1 17 3 2 19 -21 23 -32 23 -26
-1z"/>
<path d="M5530 1000 c0 -5 5 -10 10 -10 6 0 10 5 10 10 0 6 -4 10 -10 10 -5 0
-10 -4 -10 -10z"/>
<path d="M5211 824 c0 -11 3 -14 6 -6 3 7 2 16 -1 19 -3 4 -6 -2 -5 -13z"/>
<path d="M5275 709 c-4 -6 -4 -13 -1 -16 3 -4 6 -1 6 6 0 7 5 9 10 6 6 -3 10
-1 10 4 0 14 -17 14 -25 0z"/>
<path d="M5290 600 c0 -5 5 -10 10 -10 6 0 10 5 10 10 0 6 -4 10 -10 10 -5 0
-10 -4 -10 -10z"/>
<path d="M5435 270 c-18 -19 -17 -20 3 -20 15 0 22 6 22 20 0 11 -2 20 -3 20
-2 0 -12 -9 -22 -20z"/>
<path d="M4280 221 c0 -7 6 -19 14 -27 8 -7 16 -19 19 -26 3 -10 7 -10 17 -1
13 12 9 19 -33 52 -12 10 -17 10 -17 2z"/>
<path d="M4321 151 c-8 -6 -9 -11 -3 -15 6 -3 14 -1 17 5 9 14 2 20 -14 10z"/>
<path d="M4394 6288 c4 -62 14 -194 22 -293 15 -174 13 -242 -7 -334 -23 -103
-72 -150 -199 -188 -49 -14 -87 -30 -84 -35 3 -4 22 -15 41 -23 44 -19 37 -32
-8 -16 -18 6 -34 9 -36 7 -2 -2 6 -22 18 -45 33 -64 36 -181 9 -390 -16 -126
-21 -205 -18 -285 5 -103 9 -124 62 -276 31 -91 73 -230 94 -310 36 -142 37
-149 36 -325 0 -166 -2 -187 -27 -268 -52 -169 -124 -282 -239 -378 -35 -28
-64 -55 -66 -59 -1 -4 18 -4 42 0 44 7 86 -5 59 -17 -23 -9 -13 -20 15 -17 16
2 8 -3 -18 -11 -25 -9 -80 -18 -123 -22 -42 -3 -75 -8 -73 -10 2 -3 101 -24
219 -48 117 -23 222 -47 233 -53 10 -5 120 -13 244 -17 379 -12 555 20 725
131 28 18 60 41 71 51 29 24 114 130 114 142 0 6 9 25 20 44 25 42 57 170 65
262 12 121 -30 344 -86 461 -10 22 -19 46 -19 53 0 20 -42 111 -51 111 -5 0
-9 10 -9 23 0 12 -6 31 -13 42 -7 11 -20 36 -27 55 -7 19 -31 67 -53 105 -39
71 -71 142 -110 250 -20 56 -21 76 -20 300 2 138 -2 263 -8 295 -13 63 -47
150 -60 150 -5 0 -9 5 -9 11 0 25 -85 74 -150 86 -43 8 -166 4 -211 -6 -57
-13 -122 -14 -114 -1 3 5 -1 22 -8 37 -18 36 -28 201 -27 485 0 171 -4 237
-15 274 -8 27 -15 75 -15 107 l0 57 -96 0 -96 0 6 -112z m86 -1096 c15 -56 22
-190 13 -257 -7 -51 -9 -38 -9 80 0 105 -5 151 -17 183 -9 24 -12 40 -7 37 5
-3 14 -22 20 -43z m-3 -389 c-2 -16 -4 -5 -4 22 0 28 2 40 4 28 2 -13 2 -35 0
-50z m18 -341 c9 -30 14 -56 12 -58 -2 -3 -12 22 -22 53 -12 39 -18 100 -20
188 l-3 130 8 -130 c4 -71 15 -154 25 -183z m35 -107 c0 -5 -5 -3 -10 5 -5 8
-10 20 -10 25 0 6 5 3 10 -5 5 -8 10 -19 10 -25z m34 -85 c3 -14 -3 -7 -13 15
-11 22 -20 45 -20 50 0 15 26 -37 33 -65z m35 -85 c0 -5 -6 1 -14 15 -8 14
-14 30 -14 35 0 6 6 -1 14 -15 8 -14 14 -29 14 -35z m77 -230 c31 -115 40
-246 25 -358 -11 -85 -48 -223 -57 -215 -2 3 5 34 16 69 54 167 44 397 -27
603 -12 38 -23 74 -22 80 1 21 41 -90 65 -179z"/>
<path d="M5640 6333 c0 -53 6 -79 27 -120 23 -47 43 -67 43 -45 1 28 21 200
26 215 4 12 0 17 -15 17 -17 0 -21 -6 -21 -37 0 -21 -7 -46 -14 -56 -13 -16
-14 -12 -9 37 5 52 4 56 -16 56 -19 0 -21 -5 -21 -67z m50 -99 c0 -19 -4 -33
-8 -30 -8 5 -4 66 4 66 2 0 4 -16 4 -36z"/>
<path d="M5749 6398 c0 -2 -6 -61 -12 -131 -9 -97 -10 -131 -1 -138 9 -7 15
18 24 93 7 57 16 120 20 141 7 32 6 37 -11 37 -10 0 -19 -1 -20 -2z"/>
<path d="M5991 6384 c0 -11 3 -14 6 -6 3 7 2 16 -1 19 -3 4 -6 -2 -5 -13z"/>
<path d="M6020 6386 c0 -25 -23 -35 -67 -27 -37 7 -44 6 -57 -14 -12 -18 -13
-37 -5 -99 7 -52 6 -82 -1 -96 -8 -14 -8 -20 0 -20 6 0 9 -4 5 -9 -8 -14 25
-18 75 -8 25 5 46 10 48 12 1 1 -2 14 -8 29 -5 15 -7 32 -4 38 10 16 12 78 2
78 -4 0 -8 -10 -8 -22 0 -12 -2 -19 -5 -16 -12 11 8 90 24 96 9 3 20 10 24 16
5 7 7 3 5 -9 -2 -12 -10 -19 -21 -17 -11 2 -17 -4 -17 -18 0 -11 6 -20 13 -20
8 0 12 -22 12 -74 l0 -74 30 5 c51 8 55 11 55 40 0 43 24 183 31 183 3 0 5
-10 3 -22 -19 -140 -22 -173 -19 -176 2 -2 16 0 32 5 26 9 28 13 26 63 -2 29
1 50 5 46 8 -9 9 -14 11 -61 l1 -35 34 14 c18 8 61 27 95 42 l61 28 0 68 0 68
-49 0 c-46 0 -50 -2 -54 -27 l-4 -28 -2 29 -1 28 -112 -4 c-62 -3 -122 -8
-132 -13 -14 -6 -17 -5 -12 3 4 7 2 12 -3 12 -6 0 -11 -6 -11 -14z m197 -18
c-3 -8 -6 -5 -6 6 -1 11 2 17 5 13 3 -3 4 -12 1 -19z m93 -78 c0 -16 -4 -30
-10 -30 -11 0 -14 43 -3 53 11 12 13 8 13 -23z m-83 -42 c-3 -8 -6 -5 -6 6 -1
11 2 17 5 13 3 -3 4 -12 1 -19z m-157 -48 c0 -5 -5 -10 -11 -10 -5 0 -7 5 -4
10 3 6 8 10 11 10 2 0 4 -4 4 -10z m0 -41 c0 -5 -4 -9 -10 -9 -5 0 -10 7 -10
16 0 8 5 12 10 9 6 -3 10 -10 10 -16z"/>
<path d="M5822 6340 c0 -14 2 -19 5 -12 2 6 2 18 0 25 -3 6 -5 1 -5 -13z"/>
<path d="M5836 6225 c-3 -9 -6 -22 -5 -28 0 -7 5 -1 10 12 5 13 8 26 5 28 -2
2 -6 -3 -10 -12z"/>
<path d="M6329 6205 c-142 -72 -418 -145 -493 -131 l-31 6 25 -20 c24 -19 35
-26 113 -67 50 -28 225 -24 347 6 52 13 99 27 103 31 4 4 6 52 5 107 l-3 101
-66 -33z"/>
<path d="M5771 6124 c0 -11 3 -14 6 -6 3 7 2 16 -1 19 -3 4 -6 -2 -5 -13z"/>
<path d="M3675 5777 c-108 -63 -115 -69 -115 -98 0 -34 1 -34 40 -14 48 25 80
35 80 26 0 -4 -27 -23 -60 -40 -56 -30 -79 -48 -45 -35 10 4 15 0 15 -15 0
-25 1 -25 47 -6 42 18 43 18 43 5 0 -5 -7 -10 -15 -10 -8 0 -15 -4 -15 -10 0
-5 -5 -10 -10 -10 -25 0 -90 -51 -90 -71 0 -24 -3 -24 98 13 58 22 62 25 62
55 0 17 -6 34 -12 36 -10 4 -10 6 0 6 7 1 12 16 12 40 0 22 -6 42 -12 45 -10
5 -10 7 0 12 13 6 17 84 5 83 -5 0 -17 -5 -28 -12z m17 -139 c-15 -15 -26 -4
-18 18 5 13 9 15 18 6 9 -9 9 -15 0 -24z"/>
<path d="M3555 5570 c-3 -5 -2 -10 4 -10 5 0 13 5 16 10 3 6 2 10 -4 10 -5 0
-13 -4 -16 -10z"/>
<path d="M2220 5385 c7 -8 17 -15 22 -15 6 0 5 7 -2 15 -7 8 -17 15 -22 15 -6
0 -5 -7 2 -15z"/>
<path d="M1879 5219 c-10 -19 -8 -20 10 -14 12 4 21 2 21 -4 0 -6 -3 -11 -7
-11 -5 0 -13 -11 -20 -25 -8 -19 -8 -25 0 -25 34 1 52 33 42 78 -7 28 -31 29
-46 1z"/>
<path d="M1900 5009 c0 -5 5 -7 10 -4 6 3 10 8 10 11 0 2 -4 4 -10 4 -5 0 -10
-5 -10 -11z"/>
<path d="M1889 4893 c-1 -5 -1 -12 0 -17 1 -4 -4 -14 -10 -22 -6 -8 -8 -14 -3
-14 5 0 -2 -7 -14 -16 l-23 -16 21 -15 c12 -8 23 -13 26 -10 7 7 16 117 10
117 -4 0 -7 -3 -7 -7z"/>
<path d="M1787 4629 c7 -7 15 -10 18 -7 3 3 -2 9 -12 12 -14 6 -15 5 -6 -5z"/>
<path d="M1845 4499 c-4 -6 -5 -12 -2 -15 2 -3 7 2 10 11 7 17 1 20 -8 4z"/>
<path d="M1937 4460 c-3 -11 -1 -20 4 -20 5 0 9 2 9 4 0 2 3 11 6 20 3 9 2 16
-4 16 -5 0 -12 -9 -15 -20z"/>
<path d="M1930 4378 c0 -9 5 -20 10 -23 13 -8 13 5 0 25 -8 13 -10 13 -10 -2z"/>
<path d="M1931 4298 c1 -33 14 -64 22 -51 9 14 -3 73 -14 73 -5 0 -9 -10 -8
-22z"/>
<path d="M1930 4160 c0 -36 4 -52 15 -57 20 -7 34 6 17 16 -7 4 -14 26 -15 49
-2 60 -17 52 -17 -8z"/>
<path d="M2031 3942 c1 -30 2 -32 7 -14 4 13 11 23 17 22 19 -3 15 18 -5 23
-18 4 -20 1 -19 -31z"/>
<path d="M2131 3924 c0 -11 3 -14 6 -6 3 7 2 16 -1 19 -3 4 -6 -2 -5 -13z"/>
<path d="M1979 3889 c-11 -6 -10 -9 3 -14 10 -4 20 -15 23 -26 4 -10 11 -19
16 -19 6 0 7 9 4 20 -4 12 -2 20 5 20 6 0 9 4 6 9 -9 13 -42 20 -57 10z"/>
<path d="M1932 3858 c-8 -8 -12 -47 -12 -109 0 -102 18 -168 54 -199 10 -7 31
-41 48 -74 41 -82 47 -89 65 -75 12 10 8 18 -22 49 -46 48 -58 107 -28 148 14
20 18 39 15 75 -2 26 -8 47 -13 47 -5 0 -9 18 -9 39 0 31 -7 46 -36 75 -40 40
-44 42 -62 24z"/>
<path d="M2060 3527 c0 -9 -5 -17 -10 -17 -6 0 -3 -11 6 -25 21 -33 35 -23 24
16 -11 37 -20 49 -20 26z"/>
<path d="M22 3490 c0 -19 2 -27 5 -17 2 9 2 25 0 35 -3 9 -5 1 -5 -18z"/>
<path d="M2097 3373 c-11 -10 -8 -43 3 -43 6 0 10 11 10 25 0 26 -2 29 -13 18z"/>
<path d="M20 3280 c0 -11 5 -20 10 -20 6 0 10 9 10 20 0 11 -4 20 -10 20 -5 0
-10 -9 -10 -20z"/>
<path d="M3767 3013 c-4 -3 -7 -17 -7 -30 0 -17 6 -23 21 -23 17 0 19 3 10 14
-9 11 -9 15 0 18 7 2 9 10 5 16 -8 13 -19 15 -29 5z"/>
<path d="M2156 2283 c-12 -34 -54 -72 -88 -78 -39 -7 -103 -78 -93 -103 3 -8
-5 -29 -18 -46 -13 -17 -30 -49 -37 -71 -7 -22 -19 -53 -27 -69 -10 -19 -11
-32 -5 -38 13 -13 -1 -54 -27 -83 -18 -20 -33 -50 -36 -70 -1 -5 -7 -23 -14
-39 -13 -33 -11 -58 5 -63 7 -2 14 15 18 42 7 40 38 120 66 165 6 8 16 29 24
45 17 38 87 103 104 97 7 -2 24 -1 37 2 18 5 25 15 30 48 3 24 9 52 11 63 5
18 4 18 -8 4 -16 -20 -58 -34 -58 -20 0 6 14 23 30 38 19 16 35 44 42 70 6 24
18 48 28 53 10 5 21 21 24 36 8 30 1 45 -8 17z m-106 -243 c0 -5 -7 -10 -16
-10 -8 0 -12 5 -9 10 3 6 10 10 16 10 5 0 9 -4 9 -10z"/>
<path d="M2167 2153 c-4 -3 -7 -11 -7 -17 0 -6 5 -5 12 2 6 6 9 14 7 17 -3 3
-9 2 -12 -2z"/>
<path d="M2111 2124 c0 -11 3 -14 6 -6 3 7 2 16 -1 19 -3 4 -6 -2 -5 -13z"/>
<path d="M2143 2079 c-9 -24 -9 -31 2 -35 22 -9 32 3 33 36 1 39 -20 39 -35
-1z"/>
<path d="M966 1625 c-3 -8 -1 -15 4 -15 6 0 10 7 10 15 0 8 -2 15 -4 15 -2 0
-6 -7 -10 -15z"/>
<path d="M596 1481 c-20 -20 -33 -40 -29 -44 3 -4 -4 -18 -17 -32 -13 -14 -18
-25 -11 -25 18 0 111 95 111 113 0 30 -17 26 -54 -12z"/>
<path d="M381 1320 c-35 -43 -35 -54 -1 -17 22 22 44 57 37 57 -2 0 -18 -18
-36 -40z"/>
<path d="M459 1318 c-22 -24 -39 -46 -39 -50 0 -4 -9 -10 -20 -13 -41 -13 -83
-85 -50 -85 6 0 10 4 10 9 0 5 16 19 36 31 23 15 33 28 30 37 -4 9 1 17 14 20
17 5 77 93 63 93 -3 0 -23 -19 -44 -42z"/>
<path d="M300 1228 c-23 -38 -24 -44 -10 -53 6 -3 10 2 10 12 0 10 7 30 14 46
20 38 10 34 -14 -5z"/>
<path d="M423 1211 c-35 -26 -40 -34 -38 -63 2 -18 3 -41 4 -52 1 -15 7 -11
31 19 17 21 30 43 30 50 0 7 9 24 20 37 18 23 18 38 0 38 -4 0 -25 -13 -47
-29z"/>
<path d="M540 1200 c0 -5 5 -10 11 -10 5 0 7 5 4 10 -3 6 -8 10 -11 10 -2 0
-4 -4 -4 -10z"/>
<path d="M485 1130 c-3 -5 -1 -10 4 -10 6 0 11 5 11 10 0 6 -2 10 -4 10 -3 0
-8 -4 -11 -10z"/>
<path d="M215 1063 c-4 -16 -13 -40 -21 -55 -14 -25 -13 -28 0 -28 15 0 19 9
30 78 7 39 -1 43 -9 5z"/>
<path d="M174 1027 c-29 -32 -38 -48 -21 -42 11 5 54 65 45 65 -2 0 -12 -10
-24 -23z"/>
<path d="M119 924 c-19 -21 -29 -38 -23 -41 7 -2 10 -13 7 -23 -13 -50 58 5
81 63 15 36 14 37 -8 37 -12 0 -37 -16 -57 -36z"/>
<path d="M110 776 c0 -2 7 -7 16 -10 8 -3 12 -2 9 4 -6 10 -25 14 -25 6z"/>
<path d="M45 727 c-8 -20 -15 -44 -14 -54 0 -10 9 4 20 31 11 27 17 51 14 54
-2 3 -12 -11 -20 -31z"/>
<path d="M67 699 c-4 -13 -1 -26 5 -30 7 -4 6 -10 -4 -15 -14 -9 -48 -83 -48
-104 0 -6 11 -10 24 -10 29 0 46 40 46 109 0 55 -14 85 -23 50z"/>
<path d="M12 628 c-7 -7 -12 -26 -12 -42 1 -30 1 -30 15 9 15 43 15 51 -3 33z"/>
<path d="M6215 520 c3 -5 8 -10 11 -10 2 0 4 5 4 10 0 6 -5 10 -11 10 -5 0 -7
-4 -4 -10z"/>
<path d="M30 508 c0 -9 5 -20 10 -23 13 -8 13 5 0 25 -8 13 -10 13 -10 -2z"/>
<path d="M0 433 c0 -32 2 -35 14 -23 8 8 17 25 21 38 5 18 2 22 -14 22 -18 0
-21 -6 -21 -37z"/>
<path d="M6300 396 c0 -2 8 -10 18 -17 15 -13 16 -12 3 4 -13 16 -21 21 -21
13z"/>
<path d="M6370 352 c0 -5 7 -15 15 -22 8 -7 15 -8 15 -2 0 5 -7 15 -15 22 -8
7 -15 8 -15 2z"/>
<path d="M25 340 c-3 -5 -2 -10 4 -10 5 0 13 5 16 10 3 6 2 10 -4 10 -5 0 -13
-4 -16 -10z"/>
<path d="M290 279 c0 -5 5 -7 10 -4 6 3 10 8 10 11 0 2 -4 4 -10 4 -5 0 -10
-5 -10 -11z"/>
<path d="M5560 120 c0 -5 5 -10 10 -10 6 0 10 5 10 10 0 6 -4 10 -10 10 -5 0
-10 -4 -10 -10z"/>
<path d="M5651 43 c-6 -10 -11 -12 -11 -5 0 6 -4 12 -10 12 -5 0 -9 -6 -7 -12
1 -7 -4 -12 -10 -11 -7 2 -13 -1 -13 -6 0 -5 -10 -12 -22 -14 -13 -2 -6 -4 15
-4 20 0 37 4 37 8 0 5 11 11 25 15 26 6 32 18 16 29 -6 3 -14 -3 -20 -12z"/>
</g>
</svg>
